<?xml version="1.0" standalone="no"?>
<!DOCTYPE svg PUBLIC "-//W3C//DTD SVG 20010904//EN"
 "http://www.w3.org/TR/2001/REC-SVG-20010904/DTD/svg10.dtd">
<svg version="1.0" xmlns="http://www.w3.org/2000/svg"
 width="600.000000pt" height="600.000000pt" viewBox="0 0 600.000000 600.000000"
 preserveAspectRatio="xMidYMid meet">
<g transform="translate(0.000000,600.000000) scale(0.100000,-0.100000)"
fill="#000000" stroke="none">
<path d="M1605 4190 c-16 -4 -63 -8 -103 -9 -40 0 -88 -7 -106 -15 -18 -7 -66
-21 -106 -30 -40 -9 -93 -28 -119 -41 -25 -14 -53 -25 -62 -25 -26 0 -91 -30
-123 -57 -16 -13 -50 -35 -76 -48 -27 -13 -61 -40 -76 -58 -16 -19 -52 -49
-80 -66 -32 -19 -66 -52 -89 -85 -20 -29 -49 -62 -64 -74 -15 -11 -41 -46 -57
-78 -16 -33 -43 -78 -61 -102 -17 -23 -34 -61 -38 -82 -4 -22 -24 -74 -46
-115 -26 -50 -39 -89 -39 -115 0 -21 -7 -65 -15 -97 -13 -51 -13 -63 0 -110
12 -39 13 -63 6 -95 -6 -27 -7 -58 -1 -83 5 -22 10 -68 10 -103 0 -63 15 -107
44 -131 8 -7 15 -27 14 -45 -1 -41 35 -121 61 -135 13 -7 21 -22 21 -37 0 -34
21 -73 60 -109 18 -16 40 -47 51 -67 10 -20 39 -51 63 -67 24 -17 53 -46 64
-65 11 -19 38 -44 60 -55 21 -11 59 -35 83 -53 98 -75 293 -159 484 -209 75
-20 384 -23 465 -4 179 40 248 59 280 75 19 10 55 23 80 30 25 6 69 25 97 41
29 16 59 29 67 29 8 0 36 15 62 33 27 18 75 45 106 60 32 16 66 39 77 53 10
13 22 24 25 24 18 0 115 71 120 88 4 10 24 28 45 40 22 13 50 35 63 51 13 16
34 43 48 60 14 17 30 31 36 31 6 0 17 11 24 25 7 14 16 25 20 25 4 0 26 -23
50 -51 24 -28 58 -58 77 -65 18 -8 38 -25 44 -38 6 -13 28 -33 49 -45 21 -11
45 -32 54 -46 9 -14 36 -37 59 -52 23 -15 56 -39 72 -53 49 -44 328 -200 357
-200 7 0 40 -13 73 -28 33 -16 78 -32 100 -36 22 -4 53 -15 70 -23 72 -38 380
-62 560 -44 110 11 243 41 308 70 23 10 65 24 92 30 28 7 68 24 90 40 22 15
54 33 71 40 17 7 49 29 70 50 22 20 57 49 80 64 23 15 47 39 55 54 7 14 39 43
70 64 37 25 64 53 79 81 12 24 41 63 64 88 28 30 46 61 54 92 7 26 23 64 37
84 14 20 30 55 36 78 6 23 20 66 30 97 24 76 46 321 31 354 -6 13 -9 45 -5 73
4 35 0 61 -14 97 -19 48 -49 132 -80 225 -19 59 -39 97 -74 142 -16 20 -29 42
-29 48 0 21 -60 99 -88 116 -16 9 -37 35 -48 58 -11 23 -38 56 -64 75 -25 18
-48 41 -52 51 -9 25 -64 64 -121 86 -27 10 -59 29 -70 42 -29 30 -83 58 -143
73 -26 7 -66 23 -88 36 -23 13 -58 23 -79 23 -21 0 -50 6 -65 14 -29 15 -129
26 -287 32 -55 2 -104 4 -110 5 -55 3 -240 -22 -259 -35 -14 -8 -51 -19 -83
-22 -32 -4 -86 -20 -121 -36 -35 -16 -71 -31 -81 -33 -40 -7 -265 -136 -306
-174 -16 -15 -58 -45 -93 -65 -34 -21 -74 -53 -89 -72 -14 -20 -40 -42 -57
-51 -34 -16 -201 -181 -193 -189 3 -3 16 5 30 18 60 55 59 55 51 -4 -13 -100
-30 -120 -61 -70 -19 30 -29 41 -88 91 -22 19 -55 54 -73 78 -45 59 -91 79
-195 87 -62 4 -132 39 -156 78 -10 16 -10 19 0 12 7 -4 31 -7 54 -5 51 2 110
-22 153 -62 17 -17 32 -26 32 -21 0 14 -60 69 -95 87 -16 8 -47 34 -69 57 -21
22 -56 50 -76 60 -21 11 -48 33 -60 50 -20 28 -111 80 -140 80 -8 0 -44 16
-81 35 -38 19 -100 42 -139 50 -39 8 -79 19 -88 24 -21 11 -151 24 -257 26
-44 1 -89 4 -100 7 -11 3 -33 2 -50 -2z m84 -19 c20 -13 -82 -59 -149 -67
l-55 -7 16 24 c28 42 149 75 188 50z m2734 -2 c32 1 66 -1 77 -4 17 -5 13 -10
-27 -31 -26 -14 -65 -27 -87 -29 -23 -1 -56 -5 -73 -8 -46 -8 -41 4 12 33 25
14 41 26 35 28 -5 2 -34 -10 -64 -27 -37 -22 -72 -33 -117 -37 l-64 -6 43 32
c61 46 108 62 162 54 25 -4 71 -6 103 -5z m-2928 -5 c14 -6 10 -13 -22 -46
-28 -29 -56 -44 -106 -60 -37 -11 -71 -18 -74 -14 -8 8 43 73 71 92 13 8 43
18 67 23 24 5 45 9 46 10 1 1 9 -2 18 -5z m368 -3 c26 -6 25 -7 -32 -34 -51
-24 -69 -27 -133 -25 -53 2 -68 6 -53 12 11 5 27 15 35 21 37 30 116 41 183
26z m2277 -32 c-70 -47 -157 -89 -185 -89 l-25 0 27 31 c16 17 27 37 25 43 -2
6 0 8 4 4 4 -4 19 1 33 11 37 26 49 29 111 30 l55 1 -45 -31z m542 13 c18 -18
-110 -53 -169 -46 -29 4 -53 10 -53 14 0 4 21 17 48 29 35 15 61 20 106 17 32
-3 63 -9 68 -14z m-2634 -14 l33 -15 -55 -20 c-30 -11 -63 -19 -73 -18 -10 1
-46 5 -81 10 -68 8 -68 11 6 51 32 18 119 13 170 -8z m-751 -42 c-32 -44 -91
-86 -121 -86 -9 0 -29 -8 -43 -17 l-27 -18 29 53 c16 30 38 59 49 65 19 11
119 44 138 46 4 1 -7 -19 -25 -43z m2657 25 c12 -19 -36 -59 -114 -95 -44 -21
-83 -36 -85 -34 -3 2 4 20 14 39 19 35 58 63 120 85 43 16 58 17 65 5z m868
-7 c28 -14 29 -17 14 -26 -26 -14 -124 -22 -138 -11 -7 6 -26 14 -43 18 l-30
8 30 13 c42 18 130 17 167 -2z m-2624 -19 c54 -25 61 -45 17 -45 -13 0 -35 -4
-49 -10 -20 -7 -37 -5 -72 10 -65 28 -75 25 -25 -7 27 -18 51 -45 66 -74 l24
-46 -42 11 c-28 8 -59 29 -99 68 -54 53 -63 77 -22 61 12 -4 15 -3 10 5 -5 8
8 16 38 24 26 7 46 16 46 20 0 16 56 7 108 -17z m2211 -17 c8 -18 13 -36 12
-40 0 -5 6 -8 15 -8 8 0 12 -5 8 -11 -3 -6 -17 -9 -30 -6 -13 2 -24 0 -24 -4
0 -5 6 -9 13 -10 10 0 10 -2 0 -6 -7 -2 -13 -11 -13 -18 0 -7 -15 -26 -33 -42
-53 -47 -54 -54 -8 -47 31 5 46 2 69 -15 17 -11 35 -21 41 -21 6 0 13 -11 17
-25 3 -13 13 -30 21 -37 13 -11 13 -13 -3 -18 -10 -4 -36 -3 -57 2 -21 5 -43
5 -49 2 -6 -4 -8 -2 -4 4 3 6 -2 13 -12 16 -27 9 -84 65 -77 76 9 15 -3 30
-20 24 -7 -3 -19 -28 -26 -55 l-13 -49 -63 0 c-40 0 -76 6 -96 17 -18 9 -45
19 -62 23 l-30 7 40 18 c22 10 58 20 80 22 40 5 43 3 103 -48 24 -20 22 -3 -3
24 l-25 26 22 13 c13 8 32 19 43 26 102 62 117 73 95 67 -34 -10 -94 -37 -100
-46 -13 -18 -78 -57 -73 -43 6 17 -8 19 -25 2 -9 -9 -18 -9 -38 1 -15 7 -30 8
-33 3 -3 -5 -27 -21 -53 -36 -33 -19 -48 -24 -48 -14 0 31 65 105 116 131 31
16 52 18 205 21 83 1 85 2 81 24 -5 24 -22 31 -22 8 0 -10 -16 -13 -67 -13
-109 1 -233 -14 -233 -29 0 -16 -15 -20 -109 -35 -52 -8 -80 -8 -95 0 -11 5
-32 11 -45 13 -21 3 -18 7 28 31 59 33 104 39 143 20 15 -7 37 -13 50 -12 19
0 16 3 -12 13 l-34 12 67 26 67 26 39 -19 c22 -10 43 -23 46 -29 3 -5 12 -10
18 -10 7 0 0 11 -15 24 -15 13 -24 27 -21 30 4 3 30 6 60 6 40 0 58 -5 74 -21
18 -18 24 -19 50 -9 16 7 29 17 29 23 0 7 -4 7 -12 -1 -14 -14 -48 -16 -48 -2
0 11 30 29 50 30 9 0 22 -15 29 -32z m-2794 9 c23 -12 75 -59 75 -68 0 -16
-123 -8 -163 10 -23 10 -52 22 -65 26 -30 9 -23 28 14 37 41 9 116 6 139 -5z
m280 -11 c47 -16 110 -67 117 -94 5 -17 1 -17 -47 -9 -40 8 -64 20 -101 53
-26 24 -51 41 -54 38 -3 -3 5 -14 18 -24 12 -10 22 -21 22 -25 0 -3 -29 -4
-65 -2 -60 4 -68 8 -111 47 l-47 43 114 -7 c63 -3 132 -13 154 -20z m2612 13
c17 -5 45 -28 63 -51 25 -30 28 -37 12 -29 -11 6 -38 11 -59 11 -37 1 -70 21
-102 63 -12 15 -10 17 21 17 19 0 49 -5 65 -11z m159 -18 c23 -10 54 -35 70
-55 16 -20 32 -36 36 -36 10 0 -2 31 -20 53 -15 17 -11 21 21 17 10 -1 25 4
33 11 8 6 40 13 72 15 47 3 67 -2 111 -25 30 -15 56 -32 58 -37 5 -16 -159 2
-196 20 -50 26 -59 14 -12 -17 22 -15 47 -40 56 -57 19 -37 28 -39 15 -4 -22
56 -6 58 61 7 49 -37 74 -82 67 -124 -3 -20 -5 -19 -39 12 -49 47 -80 56 -170
47 -102 -10 -186 -55 -224 -121 -8 -13 -18 -16 -48 -11 -30 5 -41 13 -53 41
-9 18 -27 42 -40 52 -33 26 -30 31 16 31 48 0 120 -27 120 -45 0 -25 18 -25
22 -1 4 22 -1 26 -49 41 -50 16 -53 18 -38 35 8 9 33 23 55 30 37 12 119 4
250 -25 l25 -6 -25 13 c-14 7 -31 18 -38 25 -16 16 -36 17 -26 2 4 -7 0 -9
-14 -5 -11 4 -31 9 -44 11 -13 3 -35 7 -50 11 -26 5 -108 86 -108 105 0 16 64
9 106 -10z m-3536 -6 c0 -26 -56 -107 -82 -121 -49 -25 -91 -36 -85 -21 36 92
38 94 89 120 49 26 78 33 78 22z m315 -16 c4 -5 18 -15 33 -20 35 -13 19 -27
-49 -41 -48 -10 -65 -9 -122 8 -37 10 -63 22 -58 27 4 4 44 14 87 21 104 18
102 18 109 5z m2311 -16 c-16 -32 -44 -58 -98 -94 -58 -37 -45 -45 17 -10 62
35 143 43 165 16 10 -12 7 -16 -16 -25 -16 -6 -46 -20 -67 -31 -27 -15 -48
-19 -75 -15 -20 3 -50 5 -66 6 -24 0 -27 2 -16 15 15 18 -1 20 -18 3 -17 -17
-15 -3 7 40 23 46 42 63 106 95 67 35 80 35 61 0z m-1385 -11 c49 -26 79 -46
79 -53 0 -3 -35 -5 -77 -4 -60 1 -86 7 -113 23 -19 12 -43 22 -52 22 -30 0
-20 19 15 29 41 13 105 5 148 -17z m-1085 -34 c35 -12 60 -26 56 -30 -5 -5
-39 -17 -78 -27 -64 -18 -72 -19 -117 -4 -26 8 -50 19 -52 24 -3 4 12 13 34
20 22 7 38 15 36 20 -5 6 9 11 49 18 4 0 37 -9 72 -21z m928 5 c27 -12 41 -30
61 -75 15 -32 25 -63 23 -69 -2 -5 -27 6 -56 24 -39 24 -62 48 -82 85 l-28 52
24 0 c13 0 39 -7 58 -17z m2364 1 c37 -7 26 -20 -51 -58 -52 -26 -85 -36 -120
-36 -44 0 -47 2 -37 19 5 11 25 35 42 54 31 33 36 34 88 30 30 -2 65 -6 78 -9z
m-2855 -32 c13 -17 26 -30 28 -27 3 2 10 -5 17 -16 13 -20 11 -20 -50 -14 -65
7 -113 24 -160 56 -42 30 -60 24 -93 -33 -32 -55 -34 -56 -112 -86 l-51 -20
24 51 c25 57 65 97 93 97 10 0 33 6 50 13 19 8 69 13 131 12 l100 -1 23 -32z
m170 6 c9 -11 17 -28 17 -37 0 -9 5 -22 12 -29 15 -15 -31 -16 -84 -2 -35 10
-118 76 -118 94 0 5 35 5 78 2 60 -6 81 -12 95 -28z m3148 22 c68 -13 175 -65
190 -92 10 -18 8 -19 -13 -12 -12 4 -61 17 -107 30 -69 19 -151 62 -151 80 0
6 22 5 81 -6z m-4095 -72 c-20 -42 -35 -59 -76 -81 l-50 -28 0 23 c0 42 34 87
90 121 30 19 56 30 58 26 2 -4 -8 -32 -22 -61z m1069 27 c22 -7 56 -17 75 -20
70 -14 86 -29 99 -91 14 -70 14 -74 1 -74 -5 0 -10 7 -10 15 0 8 -7 15 -15 15
-8 0 -15 5 -15 10 0 6 -6 10 -12 9 -7 -1 -22 1 -33 6 -39 15 -165 75 -165 79
0 2 -7 20 -15 40 l-15 36 32 -6 c18 -3 51 -12 73 -19z m1549 -26 c-14 -27 -33
-53 -42 -56 -10 -3 -26 -14 -37 -24 -11 -10 -33 -23 -48 -28 l-29 -11 23 37
c33 56 47 70 103 103 28 16 52 30 53 30 1 0 -9 -23 -23 -51z m-1991 16 c20
-14 37 -27 37 -29 0 -3 -1 -3 -82 -12 -32 -4 -58 -10 -58 -14 0 -15 13 -18 39
-10 l26 10 -22 -16 c-14 -10 -23 -27 -23 -43 0 -26 -1 -26 -16 6 -11 22 -21
30 -32 27 -15 -5 -15 -4 1 9 9 8 17 17 17 20 0 18 45 77 59 77 9 0 33 -11 54
-25z m748 2 c77 -47 95 -70 103 -125 4 -29 3 -52 -1 -52 -4 0 -29 16 -54 35
-38 27 -50 44 -64 87 -10 29 -22 59 -28 66 -15 19 4 14 44 -11z m1671 -14
c-10 -15 -26 -39 -34 -53 -9 -15 -36 -33 -69 -45 -29 -11 -58 -22 -63 -24 -13
-5 44 96 65 115 17 16 109 46 117 39 2 -2 -5 -16 -16 -32z m-1493 -6 c35 -17
74 -46 87 -62 l23 -30 -53 5 c-41 4 -69 16 -129 55 -42 28 -77 53 -77 58 -1
20 89 5 149 -26z m-1344 -7 l30 -13 -50 -23 c-54 -25 -92 -33 -65 -13 12 9 11
9 -5 3 -21 -7 -27 -8 -87 -3 -30 2 -36 5 -28 18 12 22 99 51 140 47 19 -2 49
-9 65 -16z m169 -2 c-16 -53 -45 -96 -71 -107 -15 -6 -38 -15 -49 -20 -21 -9
-21 -8 -10 29 6 21 15 42 19 46 14 14 7 26 -8 14 -8 -7 -15 -20 -15 -29 0 -9
-8 -33 -18 -54 l-17 -39 -27 21 c-37 30 -121 32 -174 4 -22 -11 -70 -23 -111
-26 l-72 -7 16 28 c12 20 34 35 79 51 61 22 87 25 169 21 37 -2 38 -3 17 -14
-13 -7 -20 -15 -16 -18 3 -4 17 0 30 9 13 8 24 11 24 7 0 -5 7 -1 14 8 13 17
188 97 214 98 9 0 11 -7 6 -22z m2520 -29 c-19 -28 -34 -62 -34 -75 0 -13 -6
-24 -12 -25 -15 -1 -33 -4 -70 -14 -16 -4 -28 -4 -28 -1 0 15 39 82 57 98 19
18 102 66 115 67 4 1 -9 -22 -28 -50z m1258 11 c34 -15 47 -27 54 -52 13 -42
12 -103 -1 -103 -5 0 -9 4 -7 8 1 5 -2 5 -8 2 -22 -13 -73 65 -95 143 -8 27 0
27 57 2z m-3427 -5 c22 -8 33 -14 25 -15 -14 0 -88 -54 -131 -95 -9 -8 -27
-16 -40 -16 -18 -1 -20 -2 -6 -6 10 -3 32 1 48 7 39 16 68 7 111 -34 l35 -34
-36 -7 c-78 -15 -127 -8 -157 22 -24 23 -28 36 -27 73 1 38 7 49 34 70 26 20
73 43 99 49 3 0 23 -6 45 -14z m178 -5 c44 0 -16 -57 -83 -78 -19 -6 -55 -15
-80 -21 -44 -9 -44 -10 18 -7 63 3 64 3 100 -37 20 -22 43 -46 50 -53 16 -17
15 -24 -3 -24 -8 0 -15 4 -15 8 0 12 -75 36 -87 29 -5 -3 -31 12 -58 34 -26
22 -55 44 -64 49 -14 7 -11 13 18 39 19 17 40 31 47 31 7 0 17 6 21 14 8 15
63 26 98 20 11 -2 28 -4 38 -4z m3067 0 c0 -5 -6 -10 -12 -10 -10 0 -9 -3 1
-9 7 -5 22 -6 32 -4 12 4 29 -4 43 -18 31 -31 59 -54 66 -54 19 -1 60 -41 69
-67 27 -77 2 -176 -40 -165 -11 3 -19 4 -19 2 0 -2 -3 -11 -7 -20 -5 -15 -3
-16 14 -6 17 8 22 7 27 -5 3 -8 2 -12 -3 -9 -6 3 -14 -3 -20 -12 -6 -10 -11
-14 -11 -8 0 5 -7 -1 -16 -13 -22 -32 -101 -32 -113 0 -5 13 -10 17 -14 11 -4
-6 0 -19 9 -27 19 -19 7 -40 -27 -49 -48 -13 -81 74 -39 101 19 11 21 10 27
-20 6 -29 7 -30 14 -9 14 35 -9 63 -46 55 -16 -4 -31 -10 -33 -15 -5 -12 -49
-11 -73 2 -11 5 -17 14 -14 19 3 5 -3 14 -14 19 -16 9 -19 7 -23 -14 -3 -13
-1 -22 3 -19 5 3 9 -9 9 -25 0 -36 -5 -37 -59 -15 -32 12 -43 24 -52 52 -6 21
-15 41 -20 47 -17 18 -9 24 23 14 17 -5 33 -7 35 -5 4 4 -52 27 -77 32 -8 2
-31 7 -50 12 l-35 8 62 21 c64 22 73 21 73 -8 0 -11 10 -21 25 -25 14 -3 22
-10 19 -15 -3 -5 4 -9 15 -9 11 0 22 -8 24 -17 4 -14 5 -12 6 5 0 12 6 22 12
22 7 0 9 -9 6 -21 -3 -12 -3 -18 0 -15 4 3 17 -1 31 -10 25 -17 52 -13 52 8 0
9 -3 9 -11 1 -17 -17 -56 4 -64 34 -5 21 -10 24 -31 19 -40 -10 -61 8 -69 60
-9 63 18 129 40 94 3 -5 13 -10 22 -10 9 0 13 3 10 6 -6 7 40 68 52 70 3 0 14
4 24 9 10 4 35 5 55 3 20 -3 46 -2 57 3 28 11 35 11 35 -1z m-2642 -47 c15
-10 32 -24 38 -32 6 -8 18 -15 26 -17 25 -3 96 -52 108 -73 5 -11 10 -29 10
-41 0 -17 -4 -20 -17 -15 -10 4 -28 10 -40 12 -13 3 -20 9 -17 14 3 5 -1 10
-8 10 -36 3 -83 23 -93 39 -4 7 -22 18 -40 26 -32 13 -45 43 -45 108 0 17 1
17 25 2 14 -9 37 -24 53 -33z m2965 23 c50 -22 127 -86 127 -105 0 -10 -34 0
-128 37 -67 27 -82 40 -62 52 8 5 7 9 -4 13 -20 8 -21 27 -1 27 8 0 39 -11 68
-24z m-4453 -49 c-12 -23 -25 -44 -29 -47 -3 -3 -26 -31 -50 -62 -24 -32 -45
-58 -47 -58 -1 0 -1 19 2 42 2 29 0 38 -7 31 -6 -6 -10 -30 -10 -54 0 -30 -12
-71 -37 -126 -20 -45 -39 -82 -42 -83 -3 0 -10 26 -16 58 -15 77 -3 106 71
184 34 35 68 75 77 89 9 15 34 37 55 50 21 13 40 28 42 34 3 6 6 5 9 -3 2 -7
-6 -31 -18 -55z m1207 33 c26 -16 54 -30 63 -30 9 0 21 -5 28 -12 7 -7 12 -9
12 -5 0 4 13 1 29 -7 16 -9 32 -12 35 -8 4 3 4 -1 1 -9 -13 -35 -184 -48 -223
-16 -10 8 -3 16 28 34 23 14 39 27 36 30 -3 3 -20 -4 -39 -16 -35 -21 -96 -26
-147 -12 -24 7 -24 8 -4 14 12 4 39 21 60 37 49 37 62 37 121 0z m1687 20 c14
0 3 -10 -34 -31 -30 -16 -71 -41 -90 -54 -38 -26 -134 -41 -160 -25 -19 12
-13 17 88 72 76 41 93 47 131 43 24 -3 53 -5 65 -5z m-301 -73 c-20 -37 -44
-69 -52 -72 -9 -3 -30 -18 -46 -33 -17 -15 -26 -24 -21 -19 16 12 28 8 22 -8
-9 -26 10 -16 22 10 15 32 84 65 137 65 29 0 36 -3 25 -10 -8 -5 -11 -10 -6
-10 5 0 3 -7 -5 -16 -22 -26 -83 -53 -140 -60 -30 -3 -64 -13 -76 -20 -28 -18
-28 -13 -3 60 20 54 66 126 82 126 4 0 27 13 50 29 24 16 44 28 46 27 1 -2
-14 -33 -35 -69z m-921 52 c35 -15 67 -69 74 -122 4 -26 4 -47 2 -47 -16 0
-88 79 -92 103 -3 15 -8 38 -11 52 -6 28 -5 29 27 14z m1227 -57 c-33 -56
-114 -141 -125 -129 -10 10 18 92 39 116 25 27 108 83 115 76 2 -2 -11 -30
-29 -63z m616 44 c13 -14 20 -27 17 -31 -3 -3 4 -8 16 -12 12 -3 22 -9 22 -14
0 -4 18 -9 41 -11 l41 -3 -29 -37 c-34 -46 -61 -55 -102 -34 -26 14 -29 19
-19 30 7 8 17 11 22 8 5 -3 6 0 2 6 -3 6 0 14 8 19 12 7 12 10 0 21 -8 7 -14
8 -14 2 0 -5 -1 -13 -1 -17 -2 -9 -41 -38 -51 -38 -4 0 -12 -5 -19 -12 -6 -6
-17 -9 -23 -7 -7 3 -35 -5 -62 -17 -58 -25 -104 -40 -104 -33 0 3 12 22 27 41
26 33 26 35 6 24 -13 -6 -28 -21 -34 -34 -17 -31 -40 -52 -87 -76 -22 -11 -43
-25 -47 -31 -3 -5 -11 -10 -17 -10 -12 0 56 128 80 151 21 19 115 47 200 58
59 7 62 7 62 -14 0 -13 6 -22 15 -22 18 0 19 8 3 42 -8 19 -8 31 0 50 14 31
19 31 47 1z m-2847 -3 c5 -10 12 -30 16 -45 6 -27 5 -28 -29 -28 -20 0 -47 8
-62 17 -14 10 -33 18 -42 18 -42 3 -51 6 -51 13 0 11 90 40 127 41 21 1 35 -5
41 -16z m2601 -27 c50 -26 48 -28 -42 -45 -51 -9 -177 12 -177 30 0 17 65 37
120 38 39 0 68 -7 99 -23z m1218 -67 c12 -19 14 -38 9 -72 -8 -49 -24 -62 -33
-27 -3 12 -18 27 -34 36 -16 8 -29 18 -30 22 0 4 -2 30 -3 58 l-2 51 39 -21
c21 -11 46 -33 54 -47z m-3947 39 c66 -17 67 -19 30 -35 -39 -17 -55 -20 -118
-22 -58 -1 -45 -21 15 -21 28 0 67 -10 104 -27 l59 -27 -42 -13 c-53 -16 -113
-17 -140 -2 -14 8 -23 8 -31 0 -8 -8 -4 -11 13 -11 14 0 34 -7 45 -16 12 -9
30 -12 47 -8 31 6 36 -6 13 -30 -8 -8 -15 -22 -15 -30 0 -20 -62 -76 -101 -93
-33 -14 -33 -14 -19 22 7 17 7 32 0 43 -8 15 -9 15 -10 -3 -1 -52 -21 -93 -53
-109 -17 -8 -27 -16 -20 -16 7 0 11 -14 11 -32 -1 -18 -3 -27 -5 -20 -5 14
-29 16 -38 2 -3 -5 -8 -19 -10 -30 -2 -11 -16 -36 -31 -56 -15 -19 -28 -43
-29 -52 -1 -9 -5 -25 -9 -34 -3 -10 -8 -25 -11 -34 -3 -8 -9 -13 -14 -10 -5 3
-14 -1 -21 -9 -20 -24 -33 -18 -25 13 4 15 7 36 7 47 -1 10 3 24 7 30 5 5 16
32 26 58 10 26 31 59 47 72 15 13 28 28 28 34 0 6 12 12 28 12 20 1 22 2 7 6
-29 7 -45 23 -38 38 2 8 8 14 11 13 20 -2 34 5 69 35 22 18 37 39 35 48 -2 10
6 18 20 22 56 13 115 43 105 54 -2 1 -25 -9 -52 -22 -60 -29 -69 -30 -60 -7
18 43 24 106 14 150 -9 40 -8 47 8 56 35 21 78 34 93 29 8 -3 31 -9 50 -15z
m-215 -8 c58 -36 70 -112 35 -217 -25 -72 -51 -99 -105 -108 -38 -7 -39 -6
-20 9 16 12 17 15 5 16 -9 0 -22 -6 -29 -12 -11 -11 -13 -10 -7 0 5 8 0 11
-16 8 -30 -4 -78 13 -75 27 1 6 -8 13 -20 15 -11 2 -37 19 -57 38 -57 55 -50
100 23 142 24 14 81 7 81 -9 0 -6 3 -8 8 -6 16 10 54 -13 48 -29 -3 -8 -2 -13
3 -10 4 3 14 -7 20 -21 10 -21 14 -24 21 -13 9 14 -10 43 -48 77 -16 14 -4 41
37 84 32 33 54 35 96 9z m762 4 c12 -2 42 -17 66 -34 35 -24 45 -37 54 -74 10
-44 9 -44 -11 -31 -12 7 -38 18 -58 24 -24 8 -53 31 -82 66 -25 29 -46 56 -46
60 0 4 12 4 28 0 15 -4 37 -9 49 -11z m-887 1 c0 -2 -8 -20 -17 -40 -19 -39
-37 -44 -66 -17 -15 12 -21 14 -24 5 -7 -20 -19 -15 -19 7 0 16 7 20 36 20 20
0 45 7 56 15 19 14 34 19 34 10z m2578 -27 c-8 -13 -18 -40 -22 -60 -5 -27
-19 -47 -55 -77 -52 -44 -78 -53 -66 -23 3 9 9 29 12 43 7 35 56 94 102 123
42 27 50 26 29 -6z m323 6 c30 -9 57 -19 62 -23 10 -10 -80 -159 -107 -175
-11 -8 -31 -17 -43 -20 -19 -6 -20 -4 -13 26 17 74 42 109 94 129 71 27 79 40
9 18 -37 -13 -71 -18 -93 -14 -19 3 -56 9 -81 12 l-47 5 21 24 c11 13 28 22
36 19 9 -2 23 0 31 5 22 14 69 12 131 -6z m-1623 -21 c23 -15 42 -30 42 -34 0
-3 -20 -12 -45 -19 -55 -15 -114 -7 -160 23 l-34 22 57 17 c79 23 92 22 140
-9z m359 -26 c9 -9 18 -42 21 -72 l4 -55 -33 14 c-40 16 -58 47 -66 117 l-6
52 32 -19 c18 -10 40 -27 48 -37z m1973 34 c0 -13 -15 -24 -57 -39 -68 -23
-127 -35 -136 -26 -3 4 8 24 25 45 31 38 32 39 100 39 60 0 68 -2 68 -19z
m750 2 c14 -9 27 -19 30 -23 3 -3 21 -16 42 -30 31 -21 68 -66 68 -84 0 -24
-90 25 -152 82 -21 19 -28 22 -28 10 0 -8 18 -28 40 -43 35 -24 40 -33 40 -65
0 -42 -18 -100 -31 -100 -5 0 -20 22 -34 49 -13 27 -29 52 -35 56 -6 4 -7 12
-3 18 13 21 21 111 11 130 -12 23 18 23 52 0z m-4500 -18 c0 -7 -16 -22 -35
-34 -21 -12 -35 -28 -35 -40 0 -11 -4 -23 -10 -26 -5 -3 -10 -17 -10 -31 0
-13 -4 -24 -10 -24 -5 0 -10 -7 -10 -16 0 -15 -127 -81 -137 -71 -8 8 71 152
115 207 42 54 44 55 87 52 29 -3 45 -9 45 -17z m634 -8 l49 -23 -29 -18 c-15
-11 -40 -19 -54 -19 -29 0 -120 41 -120 54 0 9 53 27 85 28 11 0 42 -9 69 -22z
m585 -6 c23 -15 91 -147 91 -176 0 -17 -23 -23 -111 -29 -56 -4 -69 -1 -82 15
-9 10 -26 19 -37 19 -28 0 -25 -7 11 -25 19 -11 37 -32 50 -61 10 -25 19 -48
19 -50 0 -3 -26 9 -57 26 -34 18 -70 48 -86 70 -27 38 -24 56 6 44 8 -3 39 2
68 10 75 23 145 21 176 -4 15 -11 28 -18 31 -16 7 8 -25 36 -60 51 -51 23 -62
36 -85 97 l-20 57 31 -6 c17 -3 42 -13 55 -22z m3086 9 c16 0 28 -27 15 -35
-6 -4 -10 -11 -10 -17 0 -7 5 -6 15 2 16 13 35 6 35 -15 0 -8 22 -35 49 -60
74 -69 73 -97 -1 -66 -69 28 -76 29 -86 19 -12 -12 -15 -7 -26 45 -4 15 -2 27
2 27 11 0 5 66 -8 91 -6 10 -10 21 -9 26 0 4 3 2 6 -4 2 -7 11 -13 18 -13z
m-2392 -18 c44 -15 117 -74 117 -94 0 -10 5 -10 -57 6 -29 8 -75 28 -103 45
-28 17 -54 31 -58 31 -4 0 -13 9 -20 20 -12 19 -11 20 30 14 24 -3 65 -13 91
-22z m466 -4 c-7 -12 -14 -25 -14 -28 -9 -47 -23 -75 -55 -111 -57 -64 -37
-68 24 -5 39 40 65 58 97 66 24 6 49 13 56 15 6 2 -2 -16 -18 -41 -17 -24 -36
-44 -43 -44 -7 0 -21 -9 -31 -20 -17 -18 -81 -46 -97 -42 -5 1 -8 -3 -8 -9 0
-6 7 -8 16 -5 27 10 37 -5 17 -27 -10 -11 -13 -18 -8 -15 6 4 10 -13 10 -43 0
-27 -4 -50 -10 -50 -14 -2 -37 45 -25 49 6 2 10 11 10 19 0 12 -3 13 -15 3
-11 -9 -18 -8 -35 8 -19 18 -19 21 -5 55 8 20 15 58 15 84 1 26 7 59 14 72 12
22 107 102 114 96 2 -2 -2 -14 -9 -27z m-719 -12 c7 -9 18 -16 25 -16 7 0 15
-11 17 -25 5 -22 2 -25 -16 -19 -41 12 -64 33 -68 63 -4 25 -2 28 12 21 9 -5
22 -16 30 -24z m1243 3 c31 -7 57 -16 57 -21 0 -5 -21 -18 -47 -30 -37 -16
-66 -20 -127 -19 -44 1 -82 3 -84 6 -2 2 18 19 45 39 52 39 71 42 156 25z
m552 -6 c17 -10 17 -11 -3 -22 -26 -14 -132 -4 -110 10 7 5 9 9 3 9 -5 0 -4 4
3 9 17 11 83 7 107 -6z m-2721 -9 c26 -10 -43 -66 -76 -61 -21 3 -25 1 -17 -9
7 -8 7 -14 -1 -19 -5 -3 -10 -11 -10 -18 0 -6 6 -3 13 7 13 18 47 13 47 -8 0
-7 19 -11 48 -11 35 0 59 -8 94 -30 26 -17 47 -33 48 -37 0 -13 -82 -9 -120 5
-61 22 -96 50 -92 72 4 19 4 19 -15 3 -27 -24 -43 -22 -44 5 l0 22 -9 -21 c-8
-19 -103 -74 -129 -74 -5 0 2 27 17 59 25 57 27 59 70 65 24 3 49 3 55 -1 5
-3 7 -2 4 4 -3 5 13 19 36 31 45 23 56 25 81 16z m255 -8 l34 -12 -61 -32
c-71 -37 -102 -41 -102 -13 0 10 7 24 15 31 8 7 15 17 15 23 0 7 -20 -11 -43
-38 -41 -46 -46 -49 -87 -47 -39 3 -93 21 -63 22 7 0 22 11 35 24 40 42 78 55
153 55 39 0 85 -6 104 -13z m559 -2 c32 -9 61 -20 66 -24 10 -10 -114 -50
-154 -50 -18 0 -40 12 -61 32 l-34 31 45 12 c63 17 75 17 138 -1z m373 -87 c5
-21 9 -59 7 -84 l-3 -46 -33 28 c-43 36 -74 98 -79 158 l-3 47 50 -32 c39 -26
52 -42 61 -71z m-595 83 c32 0 76 -67 88 -132 8 -44 5 -45 -39 -18 -38 24 -63
58 -87 119 l-17 43 22 -6 c12 -3 27 -6 33 -6z m2281 -27 c12 -15 20 -29 18
-32 -3 -2 3 -13 12 -23 17 -19 16 -19 -12 -13 -17 4 -43 14 -59 21 -34 16 -39
17 -32 6 3 -5 -18 -4 -47 3 -56 12 -66 29 -30 52 20 13 22 12 39 -16 18 -30
34 -40 34 -22 0 6 -4 13 -10 16 -5 3 -14 15 -20 25 -9 17 -6 18 37 15 38 -3
53 -10 70 -32z m65 8 c20 -7 37 -30 59 -74 33 -66 62 -88 121 -91 24 -1 26 2
21 26 -5 27 -5 27 28 18 18 -6 43 -8 54 -5 11 3 14 2 8 -1 -8 -3 -12 -22 -12
-42 1 -20 3 -29 6 -19 4 15 9 13 34 -14 25 -27 34 -30 61 -25 18 3 35 11 38
16 3 5 27 11 53 13 42 4 53 10 85 47 20 24 41 50 46 58 6 11 12 8 27 -14 10
-16 19 -41 19 -57 0 -38 -23 -157 -31 -157 -6 0 -29 49 -49 103 -5 15 -14 27
-19 27 -6 0 -3 -16 5 -35 l15 -36 -52 26 c-66 34 -55 16 14 -24 47 -27 87 -75
73 -88 -4 -5 -87 21 -116 37 -9 5 -32 23 -49 39 -18 17 -41 31 -50 31 -13 -1
-12 -3 4 -12 11 -6 23 -16 27 -22 11 -16 10 -114 -1 -121 -11 -6 -106 118
-106 137 0 7 10 13 22 12 12 0 20 3 17 8 -3 4 -20 8 -37 8 -18 0 -54 14 -82
30 -57 34 -67 36 -58 15 3 -9 8 -14 11 -11 2 3 14 0 26 -6 20 -11 20 -11 1
-18 -11 -4 -24 -2 -28 4 -5 6 -6 -1 -2 -17 5 -27 4 -28 -26 -23 -45 7 -76 40
-86 94 -6 37 -14 50 -36 60 -15 8 -43 35 -62 60 -39 52 -45 78 -17 63 9 -5 29
-14 44 -20z m-1110 -42 c-12 -50 -24 -71 -63 -110 l-48 -48 6 52 c8 71 29 114
72 143 19 13 39 24 42 24 4 0 0 -28 -9 -61z m841 23 c24 -24 18 -47 -27 -95
-25 -27 -42 -37 -64 -37 -17 0 -38 -3 -47 -7 -16 -6 -16 -4 1 23 26 42 44 54
80 54 17 0 36 6 42 13 8 9 -2 11 -45 9 -35 -3 -72 2 -101 13 -26 9 -53 19 -61
21 -44 14 49 34 133 29 51 -3 75 -9 89 -23z m-2272 1 c21 -10 37 -22 35 -28
-3 -13 -67 -27 -128 -29 -27 0 -48 -5 -48 -10 0 -5 -9 -1 -20 9 -27 24 -26 28
18 53 45 26 93 28 143 5z m1799 -44 c-11 -29 -20 -55 -20 -56 0 -5 -75 -53
-82 -53 -4 0 -3 12 2 26 6 14 10 35 9 47 0 12 -12 -10 -25 -49 -21 -60 -30
-74 -55 -84 -16 -7 -34 -20 -40 -29 -7 -12 -9 0 -5 43 5 66 29 99 94 132 20
11 41 25 46 32 7 13 87 54 93 48 1 -1 -6 -27 -17 -57z m-1217 22 c9 -10 8 -11
-8 -5 -11 4 -16 3 -12 -1 10 -11 -62 -47 -76 -38 -6 3 -7 1 -3 -5 12 -20 -50
-14 -91 8 -34 18 -35 20 -13 20 14 1 41 10 60 20 39 21 122 22 143 1z m2988
-91 c15 -25 31 -56 35 -70 6 -22 2 -20 -39 18 -26 23 -50 42 -55 42 -16 0 -80
71 -84 95 l-5 25 61 -33 c45 -24 67 -43 87 -77z m-2656 70 c34 -13 95 -68 95
-86 0 -8 -11 -9 -42 -1 -57 13 -98 30 -98 39 0 5 -6 8 -13 8 -20 0 -44 22 -51
46 -6 20 -4 21 36 13 24 -4 57 -13 73 -19z m760 19 l39 -11 -44 -23 c-99 -52
-110 -55 -180 -55 -84 0 -84 9 -4 65 54 37 113 45 189 24z m414 -10 l64 -22
-34 -14 c-39 -17 -93 -19 -159 -6 l-45 9 45 27 c54 32 51 32 129 6z m-3247
-69 c21 -21 50 -41 63 -44 13 -3 31 -13 39 -22 9 -8 19 -13 24 -11 4 3 22 -1
40 -8 27 -12 32 -19 32 -49 0 -26 -6 -38 -21 -46 -11 -7 -21 -10 -22 -8 -1 2
-10 17 -19 35 -10 17 -18 38 -18 47 0 9 -4 16 -10 16 -5 0 -9 -6 -7 -12 1 -8
-9 -12 -28 -11 -18 1 -22 -1 -9 -3 20 -5 21 -8 10 -36 -8 -23 -24 -36 -65 -54
-29 -13 -57 -24 -62 -24 -21 0 -6 33 34 75 24 25 42 47 40 49 -3 2 3 16 12 30
14 21 15 26 3 26 -7 0 -19 -13 -25 -30 -6 -16 -15 -30 -20 -30 -15 1 -54 143
-46 170 l8 25 3 -24 c2 -13 22 -40 44 -61z m1852 12 c14 -20 24 -37 23 -39 -2
-1 -21 2 -42 8 -22 6 -64 8 -96 5 -56 -7 -109 0 -109 13 0 6 89 50 125 61 32
10 71 -8 99 -48z m-859 8 c21 -22 35 -43 32 -47 -4 -4 -23 -7 -42 -7 -37 0
-149 69 -139 85 3 5 29 9 58 9 47 0 55 -3 91 -40z m502 32 c16 -10 45 -92 39
-109 -3 -7 -1 -15 4 -18 23 -14 8 -34 -27 -40 -21 -4 -50 -11 -64 -16 -17 -7
-35 -6 -55 2 l-29 11 32 12 c18 6 38 19 45 29 8 11 27 19 46 19 18 1 35 5 38
10 5 8 -2 10 -40 12 -10 1 -20 8 -22 16 -1 8 -6 30 -9 48 -6 27 -5 32 11 32
11 0 24 -4 31 -8z m2066 -1 c14 -5 27 -21 31 -35 3 -14 12 -26 18 -26 9 0 9 3
0 12 -7 7 -12 18 -12 26 0 17 57 9 104 -14 16 -8 35 -14 43 -14 7 0 13 -5 13
-11 0 -5 -6 -7 -12 -3 -9 5 -8 2 1 -9 8 -10 11 -20 8 -23 -11 -11 -98 -6 -113
7 -8 7 -36 14 -62 15 -26 1 -52 3 -59 3 -6 1 -26 13 -43 28 -30 25 -31 27 -14
40 21 15 62 17 97 4z m-1977 -45 c36 -11 53 -39 69 -116 15 -71 15 -76 -2 -88
-28 -21 -124 -11 -166 18 -20 14 -33 28 -31 32 2 4 25 10 50 14 40 6 50 3 89
-25 62 -44 68 -38 12 12 -34 32 -47 51 -47 71 0 15 -4 35 -9 44 -4 9 -11 30
-15 47 -7 28 -7 29 11 13 10 -8 28 -19 39 -22z m3041 -21 c20 -16 27 -99 13
-165 -14 -65 -24 -75 -35 -32 -3 15 -13 41 -20 57 -32 73 -37 102 -21 134 9
16 16 38 16 48 0 14 3 13 17 -7 9 -14 23 -29 30 -35z m-4903 -19 c5 -34 3 -61
-4 -73 -6 -10 -19 -43 -29 -73 -10 -30 -22 -53 -27 -50 -5 3 -8 9 -6 14 2 5
-4 26 -12 46 -21 54 -1 133 48 186 17 18 23 8 30 -50z m3561 24 c-22 -42 -61
-79 -102 -96 -18 -8 -34 -14 -36 -14 -2 0 4 24 14 52 10 29 16 54 14 56 -1 2
-19 -6 -39 -18 -41 -23 -86 -25 -152 -9 -70 18 -42 38 77 55 19 3 55 0 80 -7
24 -7 47 -12 52 -11 4 1 26 3 48 4 24 1 43 7 46 15 3 8 7 12 10 9 2 -2 -3 -19
-12 -36z m-2567 2 c30 -19 17 -28 -63 -43 -46 -8 -61 -7 -92 8 l-37 17 29 7
c17 4 46 14 65 22 37 17 60 14 98 -11z m1292 8 c34 -24 60 -86 60 -141 l0 -40
-40 32 c-22 18 -42 42 -45 53 -10 52 -16 116 -10 116 4 0 19 -9 35 -20z m465
-40 c-5 -40 -15 -59 -41 -86 -38 -37 -54 -43 -54 -18 0 8 -5 12 -10 9 -12 -8
-4 36 14 75 10 22 86 83 95 75 1 -2 0 -27 -4 -55z m1022 -20 c-2 -24 -5 -25
-74 -26 -39 0 -77 -5 -85 -10 -7 -6 -28 -16 -45 -23 -18 -8 -30 -17 -27 -22 3
-5 1 -9 -5 -9 -5 0 -16 -3 -25 -6 -29 -11 -18 33 17 70 24 25 39 34 54 30 11
-3 24 -1 27 5 4 6 23 11 42 11 21 0 33 4 29 10 -3 6 -2 10 3 10 5 0 12 10 15
21 6 22 7 21 41 -7 25 -21 35 -36 33 -54z m914 64 c24 -9 49 -17 54 -18 51
-11 73 -38 91 -110 6 -26 5 -27 -13 -18 -11 6 -25 18 -32 26 -7 8 -34 20 -61
26 -30 7 -47 16 -43 23 3 6 1 7 -5 3 -11 -7 -24 11 -42 58 -11 30 -7 31 51 10z
m-4456 -65 c17 -70 17 -71 -4 -109 -11 -21 -21 -46 -22 -56 0 -18 -1 -17 -8 1
-5 11 -6 26 -3 34 3 8 1 12 -5 8 -10 -6 -23 18 -38 72 l-7 24 -25 -32 c-26
-33 -143 -99 -143 -81 0 20 50 117 67 132 10 8 37 22 61 30 41 16 42 16 43 -5
1 -20 2 -19 10 4 8 22 18 31 55 48 1 1 10 -31 19 -70z m1464 22 l23 -15 -26
-23 c-37 -32 -75 -29 -125 10 l-42 32 48 11 c54 12 87 8 122 -15z m1288 -5
c-21 -13 -49 -34 -62 -46 -21 -20 -37 -23 -100 -25 l-75 -2 27 30 c50 52 74
62 164 64 l83 1 -37 -22z m-1463 -5 c17 -7 29 -25 41 -61 9 -28 15 -53 13 -55
-2 -2 -24 9 -48 25 -30 20 -51 44 -63 71 l-17 41 25 -6 c13 -3 35 -10 49 -15z
m627 9 c19 -5 50 -23 68 -39 30 -27 31 -30 12 -36 -11 -3 -48 -5 -83 -4 -51 1
-74 8 -121 35 -32 19 -61 34 -64 34 -12 0 22 -32 49 -46 42 -22 56 -59 49
-126 -4 -35 -3 -62 3 -68 7 -7 -18 -10 -75 -10 -72 0 -89 3 -107 20 -12 12
-22 18 -22 15 0 -13 56 -75 68 -75 7 0 11 4 8 9 -8 13 84 22 127 12 37 -9 46
-4 27 15 -15 15 -23 105 -13 132 9 23 10 22 46 -24 28 -35 37 -57 37 -85 0
-21 4 -40 9 -43 5 -3 6 16 3 42 -5 45 -4 46 14 32 10 -8 34 -32 53 -53 19 -21
36 -35 39 -32 3 3 -14 26 -38 50 -50 51 -51 50 63 36 31 -4 57 -4 57 0 0 8
-63 19 -112 19 -50 0 -87 16 -118 49 -14 15 -34 33 -45 40 -16 9 -1 10 73 5
73 -5 92 -3 92 8 0 8 3 9 8 3 12 -16 81 -66 88 -63 3 2 14 -14 25 -34 l19 -36
-35 -35 c-19 -19 -35 -45 -35 -56 0 -18 -3 -20 -19 -11 -11 5 -82 10 -159 10
-122 0 -143 -2 -163 -19 -19 -15 -25 -16 -36 -5 -7 7 -37 18 -67 25 -53 11
-54 12 -59 53 -3 23 -9 49 -12 57 -4 10 0 16 9 16 8 0 13 -5 9 -10 -3 -5 3 -7
13 -4 11 3 45 9 77 13 52 6 60 4 91 -20 38 -28 46 -31 46 -16 0 6 -5 10 -10
10 -6 0 -26 15 -44 33 -25 25 -35 48 -45 94 -17 89 -14 93 83 93 44 0 97 -5
117 -10z m271 -3 c45 -10 70 -23 114 -62 32 -27 52 -51 46 -53 -6 -2 -36 1
-67 7 -42 8 -70 21 -108 52 -88 69 -85 77 15 56z m2583 -34 c44 -34 102 -134
89 -154 -4 -8 -3 -9 4 -5 7 4 12 2 12 -3 0 -6 -5 -11 -10 -11 -6 0 6 -33 26
-72 34 -67 36 -76 26 -113 -6 -24 -7 -46 -1 -57 5 -9 9 -47 8 -85 0 -63 -1
-66 -12 -37 -14 37 -47 79 -66 85 -8 3 -16 16 -17 30 l-4 24 16 -25 15 -25 -7
30 c-4 17 -10 50 -14 75 l-8 45 39 -45 c22 -25 39 -39 39 -32 0 7 -21 35 -46
62 -28 30 -51 67 -60 96 -19 63 -18 71 6 49 16 -14 23 -16 32 -7 9 9 8 12 -5
12 -18 0 -117 113 -117 134 0 8 -3 29 -7 47 -5 28 -4 32 8 23 8 -6 32 -24 54
-41z m-4170 20 c19 -9 35 -20 35 -24 0 -14 -91 -31 -137 -25 -34 5 -44 4 -33
-3 8 -6 23 -11 33 -11 14 0 16 -4 8 -18 -7 -13 -30 -22 -78 -30 -37 -6 -69 -9
-72 -6 -14 14 76 93 107 94 7 0 22 9 34 20 27 24 56 25 103 3z m165 -22 c-21
-27 -48 -46 -83 -59 -29 -11 -54 -18 -57 -16 -11 12 35 75 59 80 14 4 44 12
66 20 22 7 42 13 43 14 2 0 -10 -18 -28 -39z m120 19 c-9 -5 -8 -9 3 -13 8 -3
24 1 35 9 23 16 160 25 169 11 8 -13 -19 -38 -35 -32 -8 3 -24 -1 -36 -8 -18
-12 -44 -14 -119 -8 -10 0 -15 6 -12 11 3 6 2 10 -4 10 -5 0 -13 -4 -16 -10
-3 -5 -16 -10 -28 -9 -12 0 -35 -3 -50 -7 l-29 -7 22 34 c21 32 26 34 68 30
25 -2 39 -6 32 -11z m2138 9 c48 -11 83 -36 60 -43 -7 -2 -28 -9 -47 -15 -35
-11 -161 -15 -161 -5 0 18 26 48 53 59 39 17 41 17 95 4z m163 -32 c-7 -19
-22 -44 -34 -55 -21 -20 -97 -57 -97 -48 0 2 15 30 33 61 25 45 40 60 67 69
19 7 37 11 38 10 2 -2 -1 -18 -7 -37z m480 31 c9 -7 23 -26 33 -41 l17 -28
-31 16 c-17 9 -35 13 -41 9 -23 -14 -89 21 -89 47 0 14 94 11 111 -3z m-897
-50 c-10 -78 -40 -128 -76 -128 -14 0 -18 8 -18 34 0 51 17 87 53 118 18 15
36 28 40 28 4 0 5 -24 1 -52z m1656 38 c0 -2 11 -29 25 -60 14 -32 22 -55 17
-52 -4 2 -9 -10 -9 -27 -1 -18 -11 -54 -21 -82 l-20 -49 -18 52 c-10 29 -23
52 -28 52 -4 0 -4 6 2 13 5 6 15 45 22 85 7 39 17 72 22 72 4 0 8 -2 8 -4z
m-604 -33 c24 -37 44 -52 72 -53 31 0 64 -18 57 -31 -4 -5 -11 -7 -16 -4 -5 4
-9 1 -9 -5 0 -7 8 -9 19 -5 14 4 23 0 30 -14 13 -24 3 -32 -34 -25 -52 9 -95
49 -80 73 3 5 -14 12 -37 16 -24 4 -52 15 -63 24 -18 15 -19 15 -6 -1 7 -10 9
-18 3 -18 -13 0 -28 20 -36 48 -7 20 -4 22 37 22 38 0 47 -4 63 -27z m-2656
-3 c22 -11 40 -22 40 -25 0 -14 -73 -22 -119 -13 -53 11 -73 38 -27 38 14 0
28 5 31 10 9 15 32 12 75 -10z m1066 -97 c23 -53 19 -62 -23 -59 -34 2 -40 7
-60 46 -12 25 -22 65 -22 90 l-1 44 46 -44 c26 -25 53 -59 60 -77z m-809 32
c12 -22 21 -41 19 -42 -7 -7 -77 29 -80 40 -2 7 -8 26 -13 44 l-11 31 32 -17
c17 -10 41 -35 53 -56z m3070 63 c65 -27 123 -74 144 -115 20 -42 49 -58 49
-28 0 21 24 95 30 94 28 -3 77 -130 63 -166 -3 -7 -1 -13 5 -13 6 0 18 -23 27
-51 15 -45 16 -56 4 -93 -8 -22 -14 -43 -14 -46 -1 -3 -6 -15 -13 -27 -7 -13
-8 -23 -3 -23 5 0 12 6 14 13 3 6 6 -5 6 -25 1 -31 -3 -38 -18 -38 -11 0 -23
-5 -27 -11 -16 -26 -26 16 -30 123 -4 93 -9 124 -31 176 -16 38 -31 61 -39 58
-24 -9 -125 37 -148 68 -22 30 -60 116 -51 116 2 0 17 -5 32 -12z m-858 -15
c31 -3 73 -15 95 -25 21 -11 51 -21 66 -23 50 -7 188 -159 215 -237 7 -23 21
-46 29 -50 9 -5 16 -20 16 -33 0 -14 10 -45 22 -69 20 -42 20 -47 6 -63 -9
-10 -19 -33 -23 -51 -4 -18 -21 -54 -39 -81 -33 -49 -139 -161 -153 -161 -4 0
-23 -11 -42 -24 -42 -28 -165 -62 -236 -65 -68 -3 -201 18 -250 39 -22 9 -64
25 -93 34 -29 10 -57 26 -62 36 -5 10 -30 26 -55 36 -42 16 -45 19 -30 33 12
13 19 13 33 3 63 -45 124 -38 161 21 22 33 29 37 67 37 39 0 45 -3 59 -34 21
-44 60 -61 110 -47 51 14 75 38 75 75 0 35 -73 274 -101 328 -10 20 -35 49
-55 64 -29 22 -46 27 -93 27 -104 0 -136 -35 -190 -208 l-31 -100 -47 -1 c-27
-1 -60 -5 -74 -9 -37 -10 -59 16 -59 69 0 67 22 76 120 51 54 -14 109 71 82
129 -10 23 -77 61 -125 71 -26 5 -27 8 -21 48 8 55 33 89 75 103 31 11 34 10
37 -9 2 -11 -3 -26 -12 -33 -9 -6 -16 -16 -16 -22 0 -5 -16 -24 -35 -41 -19
-17 -35 -33 -35 -36 0 -13 62 28 81 54 13 18 38 34 64 41 23 6 54 22 69 35 14
12 41 28 59 35 17 6 50 20 72 31 22 10 58 19 80 19 22 0 47 5 55 10 8 6 28 8
44 5 17 -3 55 -8 85 -12z m403 -27 c16 -17 28 -36 28 -43 0 -6 6 -18 13 -25
63 -67 87 -101 87 -123 0 -16 -6 -25 -16 -25 -12 0 -9 -6 10 -21 23 -18 63
-79 52 -79 -2 0 2 -24 10 -52 20 -76 18 -90 -8 -86 -30 4 -38 16 -38 55 0 17
-9 47 -20 65 -10 18 -26 51 -33 73 -15 41 -53 106 -81 138 -15 15 -14 17 2 18
10 0 4 6 -16 15 -29 13 -58 55 -54 77 1 4 -3 6 -9 5 -6 -2 -13 7 -15 20 -2 12
1 22 7 22 5 0 8 -4 4 -9 -3 -5 -1 -12 5 -16 5 -3 10 3 10 14 0 27 26 18 62
-23z m-3424 7 c-15 -35 -68 -93 -85 -93 -7 0 -13 -5 -13 -12 0 -6 -3 -9 -6 -6
-11 11 18 91 41 114 13 13 35 24 49 24 24 0 25 -2 14 -27z m362 7 c30 -4 78
-15 105 -25 63 -23 185 -82 205 -100 8 -7 31 -21 51 -31 20 -11 49 -33 63 -51
27 -32 27 -32 6 -43 -76 -41 -81 -202 -9 -269 l23 -21 -20 -21 -20 -20 -39
123 c-44 145 -65 189 -101 217 -57 45 -148 39 -200 -13 -26 -26 -42 -63 -83
-191 -28 -87 -51 -173 -51 -191 0 -46 38 -74 100 -74 42 0 52 4 74 31 14 17
26 35 26 40 0 5 20 9 45 9 25 0 45 -4 45 -9 0 -5 12 -23 26 -40 21 -26 33 -31
67 -31 23 0 51 7 61 15 14 10 22 12 26 4 11 -17 80 -29 104 -18 33 15 67 36
66 40 -1 2 2 12 5 21 9 22 25 14 25 -12 0 -27 38 -50 83 -50 67 0 96 48 88
145 -2 18 1 17 22 -7 13 -16 29 -28 36 -28 6 0 11 -11 11 -25 0 -14 -3 -25 -7
-25 -9 0 -106 -80 -166 -136 -44 -42 -79 -54 -126 -43 -42 9 -65 29 -33 29 13
0 34 7 47 16 22 14 41 21 70 23 6 1 4 5 -4 10 -13 8 -13 12 0 27 13 16 12 16
-7 4 -16 -10 -28 -10 -53 -2 -17 6 -31 7 -31 3 0 -4 15 -12 33 -18 l32 -9 -42
-22 c-28 -14 -60 -22 -94 -22 l-53 0 29 30 c16 17 24 30 18 30 -5 0 -18 -9
-28 -20 -10 -11 -24 -20 -32 -20 -7 0 -12 -5 -10 -11 1 -6 -4 -14 -11 -16 -10
-4 -9 5 3 33 31 71 31 71 9 53 -10 -9 -33 -21 -51 -28 -18 -7 -38 -20 -45 -29
-20 -24 -171 -90 -225 -98 -26 -4 -100 -7 -163 -7 -104 -1 -123 2 -205 32 -49
17 -101 41 -115 53 -47 41 -140 142 -140 153 0 6 -11 26 -25 45 -14 19 -25 45
-25 58 0 13 -5 32 -11 43 -11 22 14 152 36 179 7 8 22 36 34 62 12 25 45 66
74 92 29 25 68 60 87 78 19 18 40 33 45 34 6 1 38 11 72 23 34 12 79 21 100
22 21 0 47 4 58 9 11 5 29 6 40 3 10 -3 44 -9 75 -13z m2065 -41 c-19 -29 -35
-57 -35 -61 0 -3 -20 -20 -44 -36 l-43 -30 18 51 c21 57 60 103 104 122 17 7
31 12 33 11 1 -2 -13 -27 -33 -57z m204 18 c-8 -24 -25 -42 -52 -56 -21 -12
-43 -21 -48 -21 -13 0 -10 42 4 60 12 16 99 61 105 55 2 -2 -2 -19 -9 -38z
m-3299 -62 c11 -26 10 -41 -10 -103 l-23 -72 -27 58 c-47 100 -46 140 3 186
l22 21 11 -30 c7 -16 17 -44 24 -60z m1360 54 c22 -13 38 -25 35 -28 -8 -8
-104 -18 -100 -10 3 4 -17 12 -43 19 l-47 12 39 18 c46 21 62 19 116 -11z
m1365 21 c-2 -4 -7 -38 -9 -75 -5 -72 -19 -96 -63 -110 -20 -5 -23 -3 -23 22
0 51 20 101 52 128 46 38 28 40 -23 2 -72 -54 -137 -67 -176 -36 -18 15 -5 30
52 59 31 15 58 19 117 18 43 0 75 -4 73 -8z m315 0 c0 -6 -53 -39 -94 -57 -29
-14 -136 -18 -136 -6 0 4 15 21 33 38 30 29 36 31 115 31 45 0 82 -2 82 -6z
m-2810 -26 c15 -39 12 -90 -8 -114 l-18 -22 -18 40 c-19 41 -16 83 6 109 16
20 28 16 38 -13z m1321 -6 c39 -29 65 -73 73 -124 l6 -41 -39 -1 c-22 -1 -52
-7 -68 -13 -26 -10 -30 -8 -56 23 l-28 33 38 7 c31 5 45 2 75 -18 53 -34 58
-30 15 14 -45 46 -86 142 -62 142 9 0 29 -10 46 -22z m-1805 -113 c5 -87 -1
-129 -16 -120 -6 4 -10 -28 -10 -84 0 -61 4 -91 11 -91 8 0 8 -4 0 -14 -9 -11
-17 -8 -45 18 -45 42 -59 88 -46 156 6 29 11 55 13 56 2 2 15 -8 30 -22 33
-30 35 -23 6 18 -38 53 -34 105 14 175 21 32 22 32 31 10 4 -12 10 -58 12
-102z m2679 97 c76 -38 143 -116 79 -92 -14 6 -40 10 -58 10 -37 0 -146 71
-146 95 0 18 80 10 125 -13z m-2537 -34 c-12 -58 -29 -81 -84 -119 l-47 -32 6
49 c4 27 15 60 25 74 17 22 86 69 103 70 4 0 3 -19 -3 -42z m582 29 c0 -7 -6
-19 -12 -25 -13 -13 -19 -94 -7 -86 19 11 18 -51 -1 -93 l-21 -47 -16 23 c-8
13 -18 43 -21 68 -4 37 -1 47 17 59 11 8 21 22 21 30 0 13 -3 13 -17 -1 -9
-10 -29 -22 -45 -27 -15 -6 -28 -14 -28 -19 0 -13 14 -11 29 4 11 10 13 6 7
-21 -3 -19 -1 -42 4 -53 19 -34 28 -110 18 -145 -10 -39 -9 -38 -43 -22 -26
12 -32 23 -16 32 4 3 5 24 1 46 -4 21 -3 37 1 34 5 -3 14 7 19 21 16 43 11 52
-13 23 -12 -15 -33 -32 -47 -37 -23 -9 -23 -10 -4 -10 45 -2 40 -81 -7 -108
-16 -10 -31 -25 -34 -34 -6 -17 -61 -36 -72 -25 -3 3 0 19 7 37 11 26 18 30
41 27 15 -3 26 -1 23 4 -14 23 37 188 58 188 5 0 8 12 8 27 0 40 49 103 95
124 48 22 55 23 55 6z m73 -39 c-14 -50 -37 -88 -54 -88 -4 0 -12 14 -18 31
-17 49 22 108 71 109 16 0 16 -4 1 -52z m3742 -27 c16 -52 16 -66 5 -106 -16
-56 -25 -63 -39 -27 -12 29 -16 90 -11 164 4 61 20 50 45 -31z m-1292 47 c-5
-7 -17 -34 -26 -59 -13 -34 -27 -51 -56 -67 -21 -12 -46 -22 -54 -22 -10 0
-13 -6 -10 -19 5 -19 5 -19 23 -1 10 10 35 26 57 36 21 9 49 27 63 40 14 12
36 25 49 29 20 6 23 4 18 -10 -4 -9 -7 -25 -7 -35 0 -15 -10 -20 -47 -26 -60
-8 -99 -28 -139 -70 l-33 -33 -6 28 c-11 49 -40 71 -95 71 -41 0 -52 -4 -73
-30 -22 -26 -27 -27 -38 -14 -48 58 -256 68 -301 14 -9 -11 -19 -20 -22 -20
-14 0 -4 21 24 48 31 31 32 58 3 75 -7 4 -13 22 -13 38 l0 31 36 -34 c20 -18
45 -46 56 -63 20 -30 20 -30 14 -4 -6 26 -5 26 42 22 51 -5 114 -33 150 -66
18 -17 24 -18 35 -7 8 9 8 11 0 6 -6 -3 -15 -2 -18 4 -4 6 -3 9 2 8 4 -1 25 4
46 11 29 10 43 23 56 50 17 38 18 38 121 47 l65 6 -42 -41 c-38 -37 -47 -41
-95 -41 -42 -1 -49 -3 -35 -11 10 -6 32 -8 50 -5 18 3 26 3 20 0 -7 -3 -13
-10 -13 -15 0 -6 8 -5 20 1 25 13 100 89 100 101 0 9 73 50 79 43 2 -2 -1 -9
-6 -16z m1594 -124 c5 -48 3 -59 -23 -96 -16 -24 -32 -50 -36 -58 -4 -9 -7 -2
-7 18 -1 18 -8 55 -17 82 -15 46 -15 52 5 109 12 34 21 69 21 79 1 36 52 -83
57 -134z m-3099 110 c30 -20 24 -37 -17 -45 -38 -8 -81 2 -120 28 l-26 17 40
13 c46 14 88 10 123 -13z m2867 -5 c28 -7 54 -14 58 -14 8 0 58 -115 50 -115
-3 0 -17 6 -31 14 -15 7 -48 23 -74 35 -32 14 -48 27 -48 39 0 10 -7 27 -15
38 -18 23 -19 40 -2 27 6 -6 35 -16 62 -24z m-4215 -4 c-23 -60 -42 -85 -89
-114 -27 -16 -55 -40 -61 -51 -6 -12 -14 -19 -18 -16 -5 5 13 51 52 135 6 14
33 34 61 47 63 30 67 30 55 -1z m2490 -1 c-6 -14 -10 -38 -10 -54 0 -16 -4
-31 -8 -34 -13 -8 -52 23 -52 42 0 15 -2 15 -10 2 -8 -12 -10 -11 -10 5 0 12
-6 27 -12 35 -11 12 -10 12 4 1 14 -10 24 -9 60 7 24 11 44 21 45 21 1 1 -2
-11 -7 -25z m-2449 -46 c17 -33 20 -52 15 -91 -3 -27 -8 -52 -11 -55 -7 -8
-55 46 -66 75 -6 16 -2 36 12 68 11 25 22 45 24 45 3 0 14 -19 26 -42z m3889
19 c16 -13 50 -62 50 -72 0 -3 -13 -5 -28 -3 -27 3 -46 17 -86 66 l-19 22 34
0 c19 0 41 -6 49 -13z m571 -7 c79 -24 106 -59 123 -158 l6 -33 -23 24 c-12
13 -42 35 -67 47 -53 27 -64 40 -84 98 -14 41 -14 43 2 37 9 -4 29 -11 43 -15z
m-4712 -69 c27 -54 32 -87 25 -153 l-7 -61 -29 34 c-41 48 -58 91 -58 149 0
94 31 108 69 31z m2372 49 c10 -6 19 -15 19 -21 0 -20 -64 -64 -102 -70 -48
-7 -65 9 -48 43 27 51 84 72 131 48z m2038 -74 c16 -65 14 -100 -9 -129 -11
-14 -20 -33 -20 -44 1 -17 2 -17 16 2 8 11 21 28 30 39 9 10 14 29 11 41 -4
22 -3 23 19 8 13 -8 21 -20 18 -28 -3 -7 -1 -16 5 -20 7 -3 8 0 5 9 -8 21 4
20 46 -5 34 -20 34 -20 15 -1 -11 11 -36 29 -55 39 -33 18 -59 56 -75 111 l-7
23 39 -19 c21 -11 50 -22 64 -25 31 -8 61 -63 65 -117 1 -19 4 -42 7 -50 8
-21 27 -94 27 -102 0 -12 -36 -9 -67 4 -36 16 -50 35 -58 77 -4 19 -13 44 -21
55 -16 24 -18 18 -5 -17 8 -19 5 -28 -17 -49 -15 -14 -37 -28 -50 -32 -20 -7
-22 -4 -20 21 1 16 -4 44 -11 61 -7 17 -11 46 -8 64 8 58 31 137 38 132 4 -2
12 -24 18 -48z m-4515 -115 c-30 -58 -57 -91 -74 -91 -16 0 -12 106 6 149 9
23 29 49 47 60 l32 20 9 -41 c8 -36 6 -48 -20 -97z m255 86 c-13 -71 -81 -164
-107 -148 -10 6 -9 20 3 66 8 33 21 65 28 72 13 12 81 61 84 59 1 -1 -3 -23
-8 -49z m63 -24 c30 -41 43 -115 31 -164 -8 -28 -17 -23 -36 16 -16 33 -37 47
-37 25 0 -5 4 -10 8 -10 5 0 15 -19 22 -42 19 -61 32 -75 42 -49 4 12 16 21
28 21 17 0 20 -6 20 -37 0 -21 -7 -46 -15 -57 -13 -18 -14 -18 -33 0 -11 11
-21 28 -23 38 -4 18 -6 17 -23 -8 -18 -29 -18 -29 3 -23 15 4 26 -2 41 -23 11
-15 20 -35 20 -43 0 -9 5 -19 12 -23 8 -5 9 0 5 16 -6 24 17 80 33 80 5 0 13
-12 16 -27 4 -15 14 -34 21 -41 18 -18 7 -51 -23 -75 -13 -10 -24 -25 -24 -32
0 -21 -11 -24 -60 -15 -35 7 -54 4 -87 -10 -23 -10 -44 -16 -47 -12 -13 13 -4
79 15 111 11 18 18 36 15 38 -7 7 -46 -58 -46 -77 -1 -35 -19 16 -25 71 -5 42
-3 64 9 87 26 51 44 48 61 -11 18 -62 67 -176 76 -177 16 0 1 59 -25 98 -16
24 -29 56 -29 72 0 16 -3 28 -6 26 -12 -8 -5 100 8 131 10 24 10 36 1 52 -8
16 -8 37 1 83 7 35 15 56 17 48 3 -8 18 -34 34 -57z m4005 46 c7 -6 13 -18 13
-26 0 -8 7 -27 15 -43 17 -34 9 -38 -34 -16 -30 16 -53 46 -66 85 -7 23 -6 24
25 17 18 -3 39 -11 47 -17z m-2461 -5 c23 -3 51 -14 63 -25 20 -19 21 -29 21
-202 0 -199 -2 -207 -55 -207 -59 0 -80 35 -61 103 7 23 5 27 -13 27 -14 0
-21 -6 -21 -19 0 -11 -19 -40 -42 -65 -36 -40 -49 -47 -82 -48 -27 -1 -43 4
-52 17 -20 27 -19 31 31 84 25 26 45 50 45 53 0 3 -11 9 -24 12 -26 6 -63 57
-66 91 -6 57 2 102 23 127 27 33 114 66 159 61 18 -2 51 -6 74 -9z m2936 -101
l-3 -93 -28 0 c-57 0 -72 62 -27 109 15 15 29 45 33 65 5 29 8 35 17 24 7 -8
10 -47 8 -105z m-3330 67 c43 -52 136 -351 118 -380 -4 -6 -25 -14 -47 -17
-33 -4 -45 -1 -62 16 -11 11 -21 31 -21 44 0 21 -4 22 -67 22 -66 0 -68 -1
-78 -29 -5 -16 -22 -38 -37 -49 -25 -18 -30 -19 -64 -6 -20 8 -40 23 -44 34
-5 13 12 78 49 190 52 157 59 172 91 193 28 19 44 23 85 19 41 -4 54 -10 77
-37z m821 21 c21 -17 22 -84 2 -101 -8 -7 -31 -10 -51 -8 l-35 4 2 -149 c3
-165 2 -167 -62 -167 -68 0 -71 8 -67 171 l3 146 -40 -5 c-51 -5 -67 12 -63
65 2 28 9 41 27 49 34 17 263 13 284 -5z m460 -5 c21 -10 45 -33 54 -50 21
-40 20 -133 -2 -175 -20 -41 -112 -86 -154 -78 l-28 6 1 -57 1 -57 -39 -3
c-22 -2 -50 -1 -63 2 l-23 6 0 194 c0 210 2 217 60 229 51 10 155 1 193 -17z
m215 -3 c17 -23 17 -384 0 -401 -17 -17 -84 -15 -102 4 -13 13 -16 46 -16 210
0 192 0 195 23 204 30 13 79 4 95 -17z m323 15 c57 -17 80 -42 74 -81 -10 -52
-44 -74 -72 -46 -17 17 -87 16 -105 -1 -46 -46 -51 -113 -12 -159 29 -35 50
-38 111 -15 35 14 46 14 58 4 15 -13 20 -56 9 -85 -10 -24 -78 -55 -123 -55
-56 0 -141 40 -172 81 -33 44 -40 65 -44 147 -3 58 0 74 23 117 47 85 151 124
253 93z m359 -3 c15 -8 38 -26 49 -41 28 -36 113 -298 109 -338 -4 -36 -44
-62 -84 -52 -28 7 -67 64 -59 85 4 9 0 11 -11 7 -8 -3 -42 -6 -74 -6 -54 0
-58 -2 -64 -25 -15 -61 -79 -84 -121 -45 -19 18 -21 26 -13 63 24 105 80 274
103 309 35 53 108 72 165 43z m1278 -76 c28 -40 29 -85 2 -99 -35 -19 -120 74
-120 133 0 13 3 26 6 29 12 13 90 -32 112 -63z m-2470 48 c6 -7 11 -82 11
-189 1 -197 -3 -208 -64 -208 -46 0 -65 22 -66 78 -3 266 -1 302 11 317 15 18
93 20 108 2z m-2032 -61 c-7 -31 -17 -48 -33 -55 -22 -10 -23 -9 -23 39 0 36
4 50 14 50 7 0 19 7 26 15 20 24 28 1 16 -49z m-376 -12 c0 -8 3 -14 8 -14 31
0 95 -141 71 -156 -8 -5 -13 10 -10 29 0 4 -3 7 -9 7 -12 0 -12 -7 -4 -48 5
-27 9 -30 25 -21 21 11 24 1 32 -83 l5 -48 -30 18 c-17 9 -33 24 -36 32 -3 8
-11 19 -19 23 -45 27 -53 127 -11 127 17 0 13 6 -20 29 -54 40 -57 47 -37 92
17 37 35 44 35 13z m4326 -4 c3 0 24 -70 24 -82 0 -3 -8 -8 -17 -10 -26 -5
-65 35 -67 68 -1 16 -5 35 -10 42 -6 10 2 9 29 -2 21 -9 39 -16 41 -16z
m-4116 -21 c0 -28 -41 -113 -64 -131 -33 -27 -46 -22 -46 17 0 28 11 49 48 94
45 55 61 60 62 20z m1781 -13 c15 9 22 -25 11 -51 -6 -13 -21 -26 -34 -28 -17
-3 -15 -4 5 -2 26 1 27 0 27 -52 0 -29 -4 -53 -9 -53 -4 0 -20 9 -35 21 -24
19 -26 26 -26 99 l0 80 26 -10 c14 -6 30 -8 35 -4z m269 -127 l0 -131 30 -30
c27 -27 36 -30 70 -25 23 3 43 1 46 -5 4 -6 12 -41 18 -79 11 -60 10 -67 -4
-59 -26 14 -68 63 -84 100 -9 19 -14 25 -12 13 3 -19 0 -18 -44 13 -64 46 -68
52 -73 109 -3 41 -4 39 -3 -13 1 -55 -1 -62 -18 -62 -16 0 -17 3 -8 12 7 7 12
43 12 90 0 55 4 78 13 79 10 0 10 2 0 6 -8 3 -13 24 -13 53 0 50 2 53 58 59 9
1 12 -31 12 -130z m2580 79 c6 -2 8 -11 4 -21 -6 -17 -7 -17 -20 0 -13 16 -13
15 -4 -11 9 -23 7 -31 -6 -41 -16 -11 -15 -12 4 -17 14 -4 24 -20 33 -49 6
-24 14 -38 16 -31 3 8 0 33 -7 57 -14 49 -6 101 16 109 30 11 44 -69 21 -114
-8 -15 -16 -42 -19 -60 -4 -19 -11 -48 -18 -65 -11 -28 -12 -29 -22 -10 -6 11
-18 29 -28 40 -34 40 -65 106 -53 113 6 4 15 20 19 36 5 21 4 27 -5 22 -7 -5
-11 6 -11 37 0 24 3 47 6 50 4 4 19 -4 35 -17 16 -13 33 -26 39 -28z m-4923
-46 c-13 -46 -27 -84 -32 -85 -5 -1 -12 11 -16 26 -4 16 -13 35 -20 43 -9 11
-8 14 5 14 9 0 19 7 23 16 5 14 55 71 60 69 1 0 -8 -38 -20 -83z m5131 55 c31
-33 52 -91 51 -139 -1 -24 -3 -35 -6 -25 -2 9 -8 17 -13 17 -14 0 -62 93 -74
143 -8 34 12 36 42 4z m-4614 -35 c-4 -4 -9 -1 -11 6 -3 6 -9 10 -14 6 -17
-10 -9 9 9 22 15 11 17 10 20 -8 2 -11 0 -23 -4 -26z m65 17 c21 -22 48 -106
37 -116 -3 -3 -6 -1 -6 6 0 7 -4 10 -9 7 -14 -9 -68 22 -73 42 -6 22 10 82 22
82 5 0 18 -9 29 -21z m4039 -10 c3 -27 -24 -99 -37 -99 -25 0 -27 62 -4 101
20 34 37 33 41 -2z m-4544 -21 c-3 -5 -12 -1 -20 9 -20 27 -17 39 6 18 11 -10
17 -22 14 -27z m4701 22 c-2 -4 6 -5 19 -3 18 4 25 0 28 -14 6 -27 -9 -85 -24
-94 -30 -19 -38 -9 -38 45 0 30 -3 62 -6 70 -5 12 -2 15 10 10 9 -3 14 -9 11
-14z m-4843 -90 c16 -37 22 -66 18 -87 l-5 -33 -31 19 c-46 28 -66 78 -58 146
l7 57 22 -24 c12 -13 33 -48 47 -78z m128 36 c0 -32 -11 -39 -32 -19 -19 17
-23 39 -11 69 6 15 8 15 25 -6 10 -12 18 -32 18 -44z m440 25 c16 -31 12 -51
-12 -61 -13 -5 -17 -9 -10 -9 7 -1 22 4 33 9 14 8 19 7 19 -1 0 -7 3 -10 6 -7
10 11 79 -23 107 -54 43 -46 37 -59 -20 -42 -55 17 -47 11 -67 54 -15 33 -16
34 -10 5 4 -16 7 -37 6 -45 0 -9 7 -16 16 -17 52 -4 121 -28 145 -51 35 -34
34 -42 -7 -42 -44 0 -66 -24 -43 -47 15 -15 16 -15 10 5 -5 20 -1 22 35 22 48
0 84 -12 121 -41 l26 -21 -88 4 c-61 2 -87 0 -87 -9 0 -6 9 -9 22 -5 14 3 19
2 14 -6 -4 -7 0 -12 10 -12 9 0 34 -18 55 -40 21 -22 44 -40 51 -40 8 1 5 7
-7 16 -19 16 -19 16 5 9 49 -15 97 -44 114 -70 10 -15 15 -29 11 -33 -8 -9
-97 17 -116 34 -8 8 -22 14 -30 14 -43 0 -152 104 -162 155 -3 17 -9 39 -13
49 -5 14 -4 17 4 12 7 -4 12 -3 12 3 0 19 -74 61 -107 61 -29 0 -33 3 -33 28
0 15 -4 32 -9 38 -16 17 -61 105 -61 119 0 13 25 34 42 35 4 0 12 -9 18 -19z
m3925 -19 c-4 -49 -34 -122 -49 -122 -15 0 -36 43 -36 73 0 37 37 87 64 87 22
0 24 -3 21 -38z m99 1 c-13 -62 -16 -66 -25 -52 -7 11 -9 10 -10 -3 -2 -28 -3
-31 -23 -73 -21 -45 -62 -84 -89 -85 -14 0 -17 5 -12 23 10 31 45 87 55 87 4
0 7 6 6 13 0 6 5 36 13 65 13 52 13 52 52 52 38 0 39 -1 33 -27z m121 -4 c-4
-5 10 -9 30 -9 75 0 88 -27 45 -90 -9 -14 -23 -43 -30 -65 -15 -45 -51 -105
-63 -105 -5 0 -5 6 -1 13 4 6 3 8 -1 4 -12 -10 -44 69 -44 110 -1 35 14 83 26
83 5 0 17 -20 28 -45 11 -25 23 -45 27 -45 9 0 -6 42 -28 75 -17 27 -12 101 7
90 5 -4 7 -11 4 -16z m-106 -65 c-18 -22 -30 -17 -20 9 5 12 13 31 17 42 7 18
8 17 12 -8 2 -16 -2 -35 -9 -43z m547 34 c-4 -18 -9 -53 -12 -78 -9 -76 -23
-98 -83 -134 -62 -39 -72 -33 -51 29 8 23 28 46 63 72 29 20 54 38 56 40 2 2
2 5 -1 8 -3 3 -24 -8 -46 -25 -47 -34 -50 -28 -26 43 17 51 45 77 82 77 22 0
24 -3 18 -32z m-2211 -142 c19 -21 33 -26 70 -26 60 0 95 32 95 87 l0 38 21
-35 c25 -41 41 -54 92 -77 21 -10 40 -26 42 -38 17 -72 24 -110 21 -112 -7 -8
-116 109 -117 124 0 10 -5 27 -10 38 -7 16 -9 14 -6 -12 4 -38 -3 -41 -28 -13
-10 11 -23 20 -28 20 -6 0 -3 -8 6 -18 23 -26 22 -28 -20 -29 -21 -1 -54 -3
-74 -4 -29 -2 -47 5 -83 32 -50 38 -54 45 -28 52 11 3 7 5 -10 6 -29 1 -91 47
-83 61 3 5 19 11 35 15 16 4 40 17 52 30 l23 24 3 -68 c2 -57 7 -74 27 -95z
m2270 101 c27 -48 31 -86 12 -131 l-13 -29 -18 28 c-10 15 -22 42 -27 59 -10
34 -2 116 12 116 4 0 20 -20 34 -43z m-5061 -23 c14 -18 26 -37 26 -42 0 -6 9
-13 19 -17 21 -6 101 -82 100 -93 -1 -4 0 -11 1 -17 5 -20 5 -125 0 -125 -3 0
-23 7 -45 14 -31 11 -45 24 -62 58 -12 23 -20 51 -17 61 3 9 -4 29 -15 43 -14
17 -21 42 -21 68 0 70 -17 77 -26 10 -4 -32 -14 -77 -24 -98 l-16 -39 -20 34
c-35 59 -28 136 17 178 25 23 38 18 83 -35z m4481 -21 c-16 -55 -49 -103 -70
-103 -7 0 -18 -7 -25 -15 -9 -10 -9 -15 -1 -15 6 0 11 4 11 10 0 5 7 7 15 4 8
-4 12 -11 8 -17 -3 -5 -7 -20 -8 -31 -4 -30 -59 -110 -90 -130 -20 -13 -44
-16 -105 -14 -44 2 -80 4 -80 5 0 1 14 9 30 18 17 9 30 13 30 10 0 -3 8 3 18
13 10 9 29 24 42 32 13 8 35 28 49 44 14 16 33 37 41 45 8 9 14 24 12 33 -6
29 53 118 94 143 22 13 40 22 41 21 2 -1 -4 -25 -12 -53z m265 35 c0 -28 -41
-78 -79 -98 -56 -28 -62 -26 -45 18 20 47 36 64 77 79 42 15 47 15 47 1z
m-2088 -35 c22 -37 41 -176 23 -165 -6 4 -28 25 -48 48 -35 39 -36 42 -30 98
7 66 25 72 55 19z m1609 -50 c-6 -22 -27 -53 -50 -75 l-39 -36 5 61 c3 34 12
69 19 78 8 8 14 20 14 25 0 6 5 15 11 21 9 9 17 6 31 -12 16 -21 17 -30 9 -62z
m563 -84 c-6 -45 -51 -131 -58 -109 -2 8 -7 27 -10 41 -3 14 -13 43 -22 65
-20 44 -19 70 2 120 l15 35 38 -56 c33 -48 38 -64 35 -96z m-5016 101 c19 0
112 -164 99 -176 -9 -9 -53 15 -83 45 -32 31 -54 88 -54 137 1 26 2 27 14 12
7 -10 18 -18 24 -18z m2201 -21 c21 -26 77 -39 114 -26 42 14 93 2 136 -32 22
-17 43 -31 49 -31 5 0 12 -7 16 -15 4 -12 -3 -15 -33 -15 -66 0 -98 11 -137
46 -49 45 -63 39 -23 -9 43 -52 34 -72 -28 -63 -25 3 -61 6 -80 6 -45 0 -35
15 31 46 28 13 43 24 34 24 -10 0 -18 7 -18 15 0 8 -4 15 -10 15 -5 0 -8 -6
-5 -12 2 -7 -17 -28 -42 -46 -30 -22 -44 -28 -39 -17 3 9 6 43 6 76 0 32 3 59
6 59 3 0 13 -9 23 -21z m742 -36 c30 -31 38 -48 43 -95 3 -31 9 -63 12 -72 10
-27 -9 -18 -58 29 -41 38 -48 50 -48 82 0 21 -4 55 -9 75 -8 33 -7 36 8 29 9
-5 32 -27 52 -48z m2289 -69 c0 -34 -30 -107 -49 -119 -12 -7 -32 63 -33 115
0 21 8 56 18 78 l19 39 23 -40 c12 -21 22 -55 22 -73z m-3070 79 c-1 -63 -18
-109 -53 -146 -20 -20 -38 -33 -41 -29 -9 14 1 97 14 123 15 29 60 79 72 79 4
0 8 -12 8 -27z m475 11 c19 -12 40 -15 81 -12 43 4 54 2 50 -9 -3 -7 -2 -13 3
-13 5 0 28 -18 52 -40 l44 -40 -55 0 c-77 0 -125 16 -154 51 -14 16 -28 29
-31 29 -12 -1 -36 30 -30 40 8 13 11 13 40 -6z m2055 -41 c29 -63 32 -114 8
-131 -36 -26 -17 -31 31 -7 27 14 59 26 72 27 13 2 27 8 31 13 5 6 8 5 8 -3 0
-11 -14 -36 -46 -80 -1 -2 -34 -12 -72 -22 -64 -16 -70 -16 -64 -1 3 9 9 19
14 22 10 6 -16 74 -32 84 -6 4 -7 11 -4 17 4 5 -4 4 -17 -3 -18 -9 -20 -13 -9
-17 25 -7 40 -34 40 -69 0 -26 -8 -42 -34 -66 -18 -18 -38 -41 -43 -51 -8 -14
-10 3 -10 63 0 76 2 84 32 127 19 27 31 53 28 64 -5 19 25 80 39 80 4 0 17
-21 28 -47z m200 17 c-14 -50 -50 -91 -98 -111 -64 -28 -78 -20 -53 29 23 46
37 58 99 88 61 29 62 29 52 -6z m-4707 -105 c-4 -38 -7 -78 -7 -87 0 -26 -8
-22 -31 15 -43 70 -44 77 -19 128 13 26 24 53 24 60 0 8 9 1 20 -16 18 -26 19
-39 13 -100z m472 115 c4 -6 16 -8 28 -5 12 2 16 2 10 -1 -9 -4 -7 -13 7 -32
54 -74 26 -233 -47 -267 -46 -22 -110 -15 -186 20 -68 30 -105 68 -113 113 -9
46 7 76 51 96 32 15 43 16 86 6 37 -9 53 -19 61 -36 6 -13 15 -24 20 -24 11 0
10 17 -1 24 -5 3 -11 18 -14 33 -9 47 76 109 98 73z m3698 -33 c-7 -39 -30
-87 -42 -87 -4 0 -18 -9 -31 -20 -13 -11 -24 -19 -26 -17 -1 1 0 21 3 44 4 31
16 52 46 82 45 46 59 45 50 -2z m-853 -3 c27 -15 50 -31 50 -35 0 -12 -66 -22
-93 -15 -13 3 -43 19 -67 35 -54 36 -67 31 -22 -9 30 -26 77 -130 69 -153 -1
-5 -25 9 -52 31 -44 35 -52 47 -63 97 -8 32 -16 63 -18 69 -3 8 19 10 71 9 60
-1 85 -7 125 -29z m1017 0 c3 -9 -7 -28 -28 -50 -29 -30 -39 -34 -86 -34 -29
0 -53 4 -53 9 0 12 63 61 78 61 7 0 12 4 12 9 0 22 69 26 77 5z m-2807 2 c0
-17 -33 -75 -52 -92 -22 -20 -88 -57 -88 -49 0 20 56 96 86 117 36 25 54 33
54 24z m1000 -151 l0 -60 -36 36 c-27 28 -40 51 -50 98 -8 34 -12 66 -9 71 4
6 26 -11 50 -38 42 -45 44 -50 45 -107z m-648 122 c-6 -7 -12 -41 -14 -76 -2
-52 -7 -66 -23 -75 -11 -6 -22 -13 -25 -16 -3 -3 -20 -16 -37 -29 l-33 -22 5
28 c2 15 7 45 10 66 5 28 20 51 62 93 31 30 58 52 61 50 3 -3 0 -11 -6 -19z
m978 -3 c28 -6 32 -5 27 9 -6 15 2 17 57 17 59 0 65 -2 102 -37 l38 -38 -57
-3 c-52 -3 -90 4 -142 24 -19 7 -19 6 -4 -12 14 -15 52 -163 45 -171 -1 -1
-19 10 -39 24 -29 20 -41 39 -52 77 -17 60 -29 146 -17 129 4 -7 23 -16 42
-19z m1884 -33 c24 -75 18 -127 -19 -167 -15 -16 -33 -41 -41 -56 -8 -16 -16
-28 -17 -28 -2 0 -2 53 -1 118 2 104 5 122 26 155 13 20 25 36 28 37 3 0 14
-27 24 -59z m202 32 c-2 -16 -5 -32 -5 -36 -3 -26 -119 -117 -151 -117 -34 0
41 108 104 147 28 18 52 32 54 33 1 0 1 -12 -2 -27z m-3347 -32 c11 -7 8 -14
-15 -35 -28 -24 -48 -31 -86 -28 -10 1 -18 -3 -18 -8 0 -6 7 -10 15 -10 28 0
15 -15 -28 -32 -45 -19 -94 -23 -115 -9 -19 12 2 25 62 40 30 7 56 22 68 37
11 13 26 24 34 24 8 0 12 4 9 10 -3 5 0 7 8 4 8 -3 18 -1 22 5 8 13 25 14 44
2z m2463 -27 c-2 -16 -11 -37 -20 -46 -18 -18 -114 -68 -120 -63 -10 9 55 99
87 121 44 29 57 26 53 -12z m-1862 12 c0 -8 5 -18 12 -22 7 -5 8 -3 3 7 -5 7
13 -8 39 -34 52 -53 52 -53 -7 -109 -31 -31 -31 -31 -77 -22 -21 5 -27 10 -19
15 7 4 14 29 16 56 2 39 10 110 12 121 3 9 21 -1 21 -12z m187 -19 c65 -46 66
-57 3 -57 -57 0 -113 25 -141 63 -16 22 -16 22 37 25 47 2 60 -2 101 -31z
m898 22 c-3 -3 7 -17 22 -30 14 -13 34 -42 44 -64 l19 -40 -6 33 c-6 32 -5 34
17 26 25 -9 42 -9 101 -3 20 1 35 6 32 10 -2 4 12 10 32 14 39 7 144 -3 144
-14 0 -4 -22 -18 -49 -31 -40 -18 -58 -21 -96 -16 -33 5 -45 4 -40 -3 3 -6 14
-11 24 -11 9 0 32 -16 51 -35 l34 -35 -50 0 c-55 0 -83 20 -103 72 -9 25 -8
27 22 31 31 4 31 4 -5 5 -21 1 -38 1 -38 -1 0 -1 4 -16 9 -33 l8 -30 -51 9
c-28 5 -68 14 -90 21 -35 11 -40 17 -57 71 -10 33 -19 61 -19 62 0 2 11 2 24
1 14 -1 23 -5 21 -9z m178 -4 c76 -23 84 -30 49 -44 -17 -7 -53 -14 -80 -14
-39 -2 -57 4 -90 27 -23 16 -42 33 -42 37 0 14 111 10 163 -6z m-3394 -84 c18
-39 29 -78 27 -92 -3 -13 -5 -35 -5 -48 l-1 -24 -26 24 c-39 36 -54 80 -54
160 0 87 11 83 59 -20z m1331 77 c-1 -23 -28 -50 -76 -74 -26 -13 -49 -24 -51
-24 -2 0 -1 12 2 28 l6 27 -15 -25 c-11 -19 -11 -27 -3 -33 8 -6 5 -7 -7 -3
-10 4 -24 2 -30 -3 -6 -5 -40 -12 -76 -16 -54 -5 -61 -4 -45 6 11 7 32 22 47
35 15 12 52 28 82 34 30 6 76 22 103 35 56 28 63 29 63 13z m697 -36 c-12 -13
-31 -28 -41 -34 -20 -11 -121 -12 -137 -2 -12 7 28 64 52 73 11 3 48 2 84 -3
l65 -10 -23 -24z m571 41 c34 -4 54 -15 90 -49 l46 -44 -73 0 c-89 0 -102 6
-165 79 l-20 22 40 -2 c21 0 58 -3 82 -6z m2301 -111 c1 -70 -7 -91 -52 -135
l-32 -31 -8 44 c-11 54 13 147 51 204 l27 39 6 -29 c4 -16 7 -57 8 -92z
m-5093 95 c55 -32 115 -99 129 -144 9 -33 -20 -30 -79 7 -32 21 -46 36 -42 45
3 9 0 15 -8 15 -8 0 -17 12 -21 28 -17 68 -16 71 21 49z m1842 -11 c13 -13 11
-17 -19 -35 -38 -23 -71 -26 -118 -10 l-31 11 37 30 c32 25 44 29 77 25 21 -3
46 -12 54 -21z m1218 15 c-4 -5 14 -27 38 -48 36 -31 47 -50 59 -98 9 -33 19
-68 22 -77 12 -30 -12 -20 -63 27 -44 41 -51 53 -61 108 -7 34 -14 70 -17 80
-4 11 0 17 11 17 9 0 14 -4 11 -9z m-2112 -10 c4 -5 25 -12 48 -16 l42 -7 -27
-14 c-65 -35 -137 -29 -191 16 -17 14 -17 15 15 21 54 10 107 10 113 0z m1331
-43 c-9 -78 -22 -104 -67 -133 l-40 -27 7 54 c4 29 8 57 9 62 2 14 78 96 88
96 6 0 7 -22 3 -52z m468 -44 c4 -7 10 -32 13 -56 9 -64 17 -61 12 5 -3 31 -2
57 1 57 3 0 24 -18 45 -40 32 -33 41 -52 51 -104 11 -60 11 -63 -6 -59 -10 3
-16 9 -13 14 3 5 -1 6 -9 4 -7 -3 -31 14 -55 40 -22 25 -44 45 -49 45 -16 1
-53 39 -63 65 -5 14 -10 49 -10 77 l0 52 38 -44 c20 -24 40 -49 45 -56z m482
81 c17 -3 48 -20 70 -37 l39 -33 -39 -7 c-54 -9 -123 -10 -127 0 -1 4 -23 25
-48 47 l-45 41 60 -3 c33 -2 74 -6 90 -8z m1145 10 c0 -2 -20 -17 -46 -34 -44
-30 -76 -37 -122 -25 -22 6 -22 7 10 29 19 13 42 25 53 27 24 6 105 8 105 3z
m-2496 -38 c-4 -12 -9 -44 -13 -71 -5 -45 -10 -52 -45 -70 -22 -12 -41 -26
-44 -33 -2 -7 16 -2 40 11 31 17 59 24 103 24 53 1 98 -10 85 -20 -83 -60 -94
-62 -203 -39 -49 11 -57 16 -51 29 4 10 9 32 12 51 3 25 19 49 56 85 28 28 49
55 48 59 -1 5 2 6 8 2 6 -4 8 -16 4 -28z m2195 26 c0 -5 -8 -21 -18 -38 -20
-35 -57 -55 -114 -63 l-41 -5 39 39 c43 44 137 90 134 67z m-3332 -60 c16 -21
33 -54 37 -75 6 -34 5 -36 -15 -31 -17 5 -20 3 -15 -8 4 -8 -1 -4 -11 7 -19
23 -71 45 -59 25 4 -6 14 -11 22 -11 8 0 14 -2 14 -4 0 -2 3 -11 6 -19 7 -19
-47 -29 -101 -18 -22 5 -35 9 -28 10 27 3 73 54 83 94 21 82 24 83 67 30z
m3207 23 c-3 -8 -22 -27 -41 -42 -38 -29 -103 -36 -140 -16 -15 9 -8 15 47 41
70 33 144 42 134 17z m-2826 -8 c-6 -17 -69 -48 -100 -48 -15 0 -39 5 -55 11
l-28 11 25 10 c63 24 164 35 158 16z m116 -17 c-46 -34 -105 -52 -145 -44
l-29 6 37 20 c56 30 104 46 142 47 l35 0 -40 -29z m-955 -2 c1 -6 13 -20 26
-32 12 -12 25 -34 27 -49 5 -25 3 -27 -26 -21 -35 7 -59 31 -88 87 l-20 39 39
-8 c21 -3 40 -11 42 -16z m1454 -1 c25 -6 46 -28 26 -28 -8 0 -34 -9 -57 -20
-50 -24 -60 -25 -114 -3 l-42 17 49 23 c47 22 78 25 138 11z m888 -26 c22 -18
37 -37 34 -42 -3 -4 1 -11 7 -14 7 -3 -7 -2 -32 1 -50 6 -140 44 -160 67 -7 9
-17 13 -23 9 -5 -3 -8 -2 -4 3 3 5 35 9 72 9 60 0 70 -3 106 -33z m1588 32
c38 -8 39 -17 4 -30 -22 -8 -9 -10 62 -10 152 -1 144 3 141 -65 -3 -61 -20
-93 -57 -104 -18 -6 -27 -25 -11 -25 4 0 34 18 67 40 49 32 69 39 108 40 51 0
58 -11 29 -46 -37 -44 -73 -58 -147 -56 -38 1 -71 6 -73 12 -2 5 -12 10 -23
10 -38 0 -11 100 35 133 34 23 47 39 40 46 -2 2 -15 -5 -27 -18 -24 -22 -76
-41 -112 -41 -17 0 -17 2 -5 10 11 7 4 10 -27 10 -46 0 -67 16 -31 23 13 3 7
4 -12 3 -19 -2 -50 4 -68 13 l-33 15 38 23 c41 24 53 27 102 17z m279 -64 c-2
-66 -4 -72 -30 -85 l-28 -13 0 63 c0 57 3 65 28 84 15 11 28 21 30 21 2 0 2
-32 0 -70z m277 -77 c-3 -12 -20 -38 -38 -56 -17 -18 -36 -41 -42 -51 -7 -13
-10 2 -9 56 1 89 24 157 62 179 l27 15 3 -60 c2 -33 1 -71 -3 -83z m235 135
c0 -21 -38 -76 -64 -93 -13 -9 -38 -18 -55 -20 -17 -2 -40 -9 -51 -15 -30 -16
-24 1 17 49 20 24 58 53 87 66 61 28 66 29 66 13z m-2887 -10 c1 -4 -8 -20
-20 -37 -26 -34 -70 -45 -163 -39 l-55 3 65 43 c59 39 70 42 118 39 29 -1 53
-6 55 -9z m-648 -10 c14 -6 25 -14 25 -18 0 -9 -89 -22 -101 -14 -5 3 -8 0 -7
-7 2 -9 -15 -15 -52 -20 -44 -6 -56 -4 -66 9 -11 15 -6 18 49 28 49 9 99 23
124 33 1 1 14 -4 28 -11z m704 -15 c-5 -16 -11 -45 -14 -65 -6 -39 -54 -100
-88 -111 -16 -6 -17 -2 -12 31 12 69 25 98 61 135 44 45 66 49 53 10z m813 -5
c36 -28 38 -33 22 -39 -11 -4 -37 -8 -59 -8 -59 -2 -72 -14 -41 -38 14 -11 22
-24 18 -28 -4 -3 -2 -6 3 -5 35 7 55 -31 55 -108 l0 -44 -27 18 c-56 36 -70
68 -76 173 -2 26 -11 41 -41 65 l-38 31 28 6 c73 16 115 10 156 -23z m-522 4
l21 -17 -24 -29 c-16 -19 -31 -27 -41 -23 -12 5 -16 0 -16 -20 0 -19 -14 -40
-47 -71 l-48 -44 -3 27 c-5 42 16 81 69 129 27 24 49 49 49 55 0 16 15 13 40
-7z m954 -2 c22 -10 42 -18 45 -15 4 2 7 -5 7 -14 0 -14 -7 -18 -31 -16 -16 1
-47 -5 -67 -13 -35 -13 -41 -12 -82 8 -53 25 -75 47 -55 54 59 20 140 18 183
-4z m-177 -39 c29 -32 53 -94 53 -135 0 -13 -6 -12 -34 4 -48 29 -62 48 -80
112 -9 31 -16 58 -16 61 0 16 50 -12 77 -42z m551 24 c44 -14 83 -47 70 -60
-2 -2 -29 -1 -61 2 -37 4 -57 10 -57 19 0 7 -9 20 -21 28 -21 15 -19 38 4 31
7 -2 36 -11 65 -20z m893 -8 c-31 -50 -71 -73 -119 -69 -26 3 -42 9 -42 17 0
28 96 77 161 82 l20 2 -20 -32z m-3860 9 c63 -26 112 -105 75 -119 -20 -8
-106 51 -106 72 0 9 -3 26 -6 39 -7 26 -6 26 37 8z m232 8 c28 -5 42 -14 53
-35 l15 -29 -48 0 c-44 1 -50 4 -70 35 -25 39 -23 40 50 29z m520 -16 l42 -21
-40 -19 c-24 -11 -52 -16 -70 -13 -54 9 -70 13 -90 20 -11 4 -1 -5 23 -20 23
-14 47 -23 52 -20 6 3 10 2 10 -4 0 -23 -42 -34 -84 -21 -104 31 -138 49 -95
51 l24 1 -25 8 c-21 7 -18 8 20 10 25 1 74 12 110 24 84 30 74 29 123 4z m164
-37 c-19 -51 -27 -61 -70 -86 -26 -15 -51 -25 -54 -22 -2 3 1 27 9 53 12 42
20 52 68 81 30 18 58 33 61 33 3 0 -3 -26 -14 -59z m2340 47 c18 -7 33 -15 33
-18 0 -11 -93 -31 -99 -22 -8 12 -52 35 -57 29 -3 -2 8 -13 23 -23 l28 -18
-25 -7 c-53 -15 -84 -10 -107 18 -13 14 -21 28 -19 30 2 2 23 4 47 5 24 0 53
4 64 9 30 12 74 11 112 -3z m-2839 -18 c30 -29 28 -40 -10 -42 -61 -2 -83 3
-102 25 -18 21 -18 22 5 28 47 13 85 9 107 -11z m-817 -34 c5 3 9 0 9 -5 0
-14 -16 -14 -57 1 -20 7 -33 19 -33 30 0 15 4 15 36 -7 20 -14 40 -22 45 -19z
m3159 29 c44 -23 39 -44 -10 -41 -40 3 -90 29 -90 46 0 15 68 12 100 -5z
m-3287 -73 c19 -45 29 -122 16 -122 -34 0 -97 128 -84 170 6 18 8 18 29 5 13
-9 30 -32 39 -53z m1318 2 c-21 -54 -34 -71 -74 -100 -65 -47 -78 -34 -40 42
23 48 37 64 75 84 26 14 50 28 54 33 4 4 8 7 9 7 1 0 -9 -30 -24 -66z m2543
57 c3 -4 26 -14 51 -21 25 -7 45 -16 45 -20 0 -4 -16 -15 -36 -25 -38 -18
-124 -14 -124 6 0 5 -12 14 -27 20 -27 10 -27 11 -8 21 16 10 60 23 87 27 4 1
9 -3 12 -8z m-4019 -29 c45 -25 122 -108 111 -119 -10 -10 -109 18 -134 38
-28 22 -72 82 -72 98 0 19 44 11 95 -17z m824 8 c29 0 43 -8 74 -42 41 -45 36
-63 -16 -52 -55 11 -84 33 -100 76 -10 24 -12 37 -5 30 7 -7 28 -12 47 -12z
m1759 -16 c43 -33 40 -44 -9 -44 -46 0 -108 30 -128 62 -12 20 -11 20 46 13
38 -4 69 -15 91 -31z m344 27 c13 -5 36 -22 53 -38 l29 -28 -39 -7 c-87 -15
-111 -10 -159 32 l-46 39 57 4 c32 2 63 4 70 5 6 1 22 -2 35 -7z m436 -41
c-15 -24 -80 -30 -121 -11 -18 8 -35 13 -39 13 -5 -1 -8 3 -8 8 0 6 8 10 18
10 10 0 22 4 28 9 15 16 97 17 116 2 13 -10 15 -17 6 -31z m1480 -86 c-8 -31
-42 -67 -92 -98 l-29 -18 7 45 c10 68 60 178 88 193 23 12 23 11 29 -39 3 -29
2 -66 -3 -83z m-2664 105 c-40 -46 -183 -92 -172 -56 3 6 27 27 54 45 36 24
60 32 93 32 l44 0 -19 -21z m-1894 -13 c21 -3 30 -3 21 3 -25 16 5 20 45 6 21
-8 54 -14 73 -15 38 0 71 -24 71 -50 0 -10 7 -37 15 -60 15 -43 15 -43 -4 -25
-19 17 -22 17 -63 0 -47 -20 -94 -21 -115 -3 -7 6 -17 8 -20 4 -4 -4 -3 -10 4
-14 53 -34 103 -98 129 -167 6 -18 7 -18 11 -2 3 10 -3 29 -12 43 -9 14 -14
28 -12 31 6 5 62 -22 99 -50 25 -18 78 -88 78 -102 0 -3 -18 -5 -39 -5 -31 0
-46 7 -72 33 -18 17 -36 33 -41 33 -4 1 -15 2 -23 3 -23 2 -91 67 -108 104 -9
18 -18 49 -20 69 -2 20 -11 43 -20 53 -17 17 -23 36 -9 33 4 0 15 2 25 7 29
12 85 -2 118 -29 48 -41 55 -30 10 13 -23 22 -41 46 -41 54 0 15 -47 33 -58
22 -3 -3 0 -5 7 -5 13 0 46 -28 40 -35 -2 -2 -37 -5 -76 -6 -68 -3 -74 -2
-103 26 -16 16 -30 32 -30 36 0 10 51 16 70 8 8 -3 31 -9 50 -13z m1629 -21
c-11 -58 -25 -84 -63 -117 -42 -37 -68 -37 -60 0 21 92 25 101 66 131 58 43
67 41 57 -14z m1714 -2 c29 -26 54 -49 56 -50 25 -17 -75 -7 -139 13 -8 3 -30
18 -49 34 l-34 29 24 10 c54 22 87 13 142 -36z m-2610 23 c18 -7 43 -25 57
-40 21 -23 22 -29 10 -36 -21 -13 -77 -12 -103 1 -29 15 -66 49 -78 72 -9 15
-4 17 36 17 25 0 60 -6 78 -14z m150 -3 l32 -16 -43 -19 -43 -19 -29 28 c-30
28 -30 28 -8 35 38 10 58 9 91 -9z m2075 -33 c18 -7 51 -13 72 -14 31 -1 42 4
51 22 12 22 26 27 63 23 18 -1 69 -39 74 -54 4 -14 -110 -68 -132 -62 -21 6
-21 6 -2 -9 11 -9 16 -16 12 -16 -4 0 7 -25 23 -55 17 -30 27 -55 22 -55 -4 0
-36 25 -71 55 -35 30 -72 55 -82 55 -10 0 -18 5 -18 11 0 6 7 9 15 5 8 -3 15
-1 15 4 0 5 10 10 23 12 12 2 21 9 20 16 -2 6 0 12 5 13 25 2 57 10 61 16 3 3
-4 3 -16 0 -13 -3 -26 -1 -29 4 -3 5 -19 -2 -35 -15 -16 -14 -38 -27 -49 -31
-11 -3 -20 -11 -20 -16 0 -15 -33 -10 -56 9 -16 12 -24 33 -29 76 l-7 59 29
-20 c15 -11 43 -25 61 -33z m550 1 c24 -18 45 -31 48 -28 3 3 -8 15 -25 28
-17 13 -31 26 -31 30 0 4 20 10 45 14 37 5 52 2 83 -16 20 -13 39 -27 40 -31
2 -5 8 -6 13 -2 5 3 9 1 9 -4 0 -6 10 -8 23 -5 12 3 19 2 15 -2 -7 -7 -51 -14
-126 -20 -18 -1 -35 -5 -39 -9 -10 -10 -99 -7 -130 5 -26 10 -93 66 -93 79 0
3 28 3 63 0 52 -4 70 -11 105 -39z m357 4 c-8 -22 -14 -47 -15 -56 0 -9 -18
-24 -40 -34 -23 -10 -43 -22 -46 -27 -6 -10 45 1 61 12 21 16 73 19 129 7 l60
-13 -42 -32 c-50 -40 -92 -44 -180 -16 -68 21 -67 19 -38 87 21 48 2 39 -23
-12 -11 -20 -26 -43 -34 -49 -14 -12 -107 -34 -107 -25 0 11 40 81 52 90 7 6
45 22 83 35 39 13 88 36 110 50 22 14 41 25 42 24 1 -1 -4 -20 -12 -41z
m-3472 15 c14 -11 30 -20 36 -20 6 0 11 -4 11 -9 0 -5 -22 -14 -48 -21 -43
-10 -55 -9 -102 10 -79 31 -80 33 -20 46 81 17 95 16 123 -6z m3847 -42 c-1
-55 -4 -67 -28 -93 -41 -45 -89 -77 -97 -65 -19 32 45 200 77 200 9 0 20 5 23
10 15 25 25 5 25 -52z m233 45 c-8 -25 -54 -73 -64 -67 -4 2 -10 0 -14 -6 -3
-5 -15 -10 -25 -10 -10 0 -20 -5 -22 -11 -2 -6 -19 -9 -38 -7 l-34 3 48 45
c47 45 91 68 133 69 17 1 21 -3 16 -16z m-3491 -23 c24 0 13 -25 -18 -39 -31
-14 -55 -14 -91 0 l-28 11 40 19 c22 11 49 17 60 14 11 -3 28 -5 37 -5z m881
-32 c-8 -57 -26 -92 -65 -121 -61 -45 -68 -43 -50 16 19 67 37 93 81 122 20
13 37 24 38 24 0 1 -1 -18 -4 -41z m-814 -27 c-12 -29 -30 -56 -40 -61 -27
-15 -96 -12 -102 4 -7 19 20 56 42 56 9 0 21 4 27 10 12 12 88 49 92 45 2 -2
-7 -26 -19 -54z m360 46 l44 -14 -30 -21 c-52 -37 -73 -40 -142 -22 -46 12
-60 19 -50 26 75 47 104 53 178 31z m-1431 -70 c11 -17 22 -45 25 -62 3 -16 9
-38 12 -47 6 -16 4 -16 -32 -2 -44 18 -61 48 -72 131 l-7 51 27 -19 c15 -11
36 -34 47 -52z m2436 29 c31 -20 56 -40 56 -46 0 -15 -76 -12 -118 6 -20 8
-50 27 -65 42 -25 24 -26 27 -10 34 32 13 80 0 137 -36z m369 28 c60 -31 61
-41 9 -54 -57 -13 -106 -9 -149 13 -57 30 -52 38 27 50 54 9 82 6 113 -9z
m-2493 -11 c33 -19 46 -42 59 -101 10 -49 8 -49 -56 -9 -30 19 -42 36 -55 76
-16 50 -16 51 4 51 11 0 33 -8 48 -17z m257 5 c39 -14 41 -21 11 -40 -49 -31
-84 -37 -143 -23 -84 19 -87 30 -13 53 76 24 101 26 145 10z m952 -30 c-4 -24
-8 -46 -9 -50 0 -12 -75 -78 -87 -78 -7 0 -13 -4 -13 -9 0 -5 -10 -11 -23 -13
l-23 -4 18 35 c10 19 18 41 18 48 0 17 69 93 95 103 32 14 33 12 24 -32z m269
13 c-4 -19 -63 -53 -92 -53 -17 0 -28 -10 -37 -32 -19 -43 -106 -85 -176 -86
-29 0 -53 3 -53 8 1 9 75 55 95 58 9 1 27 10 41 19 13 9 29 13 34 10 6 -3 10
-1 10 5 0 7 7 10 15 7 8 -4 17 -2 20 3 4 6 -2 10 -12 11 -11 0 -13 3 -5 6 6 2
10 8 8 12 -3 4 4 8 15 8 11 1 32 11 47 22 32 23 94 24 90 2z m-886 -8 c24 -5
25 -7 16 -35 -10 -28 -7 -64 8 -115 11 -38 -20 -38 -71 -2 -25 18 -48 30 -51
26 -3 -3 13 -18 35 -32 22 -15 38 -31 35 -36 -3 -5 -35 -9 -72 -9 -64 0 -69 2
-109 40 -42 38 -49 70 -17 70 8 0 31 15 51 34 48 42 113 77 133 70 8 -3 27 -8
42 -11z m1745 -21 c32 -30 41 -44 36 -60 -3 -13 -1 -22 6 -22 6 0 11 -13 11
-29 0 -29 -1 -30 -29 -20 -46 16 -68 48 -75 112 -3 31 -3 57 1 57 5 0 27 -17
50 -38z m786 21 c64 -3 117 -9 117 -14 0 -4 -26 -26 -57 -49 -56 -40 -60 -41
-116 -36 -92 9 -98 18 -32 52 31 15 52 30 47 32 -6 2 -34 -9 -64 -24 -54 -28
-96 -32 -144 -13 l-26 9 23 19 c34 26 80 41 109 35 14 -2 78 -7 143 -11z
m1024 -35 c-16 -93 -28 -129 -45 -135 -9 -4 -24 -12 -32 -20 -35 -31 -64 -53
-72 -53 -4 0 -8 -7 -8 -15 0 -8 -18 -26 -41 -40 -74 -48 -82 -44 -53 23 40 94
56 118 94 140 22 12 40 21 40 20 0 -2 -7 -28 -15 -58 -18 -65 -17 -63 -6 -56
5 3 15 30 22 58 14 63 49 123 92 160 18 15 32 28 33 28 0 0 -4 -24 -9 -52z
m-3738 36 c30 -6 44 -24 18 -24 -8 0 -20 -11 -27 -25 -24 -45 -112 -55 -180
-19 l-25 13 27 1 c15 0 30 5 33 10 10 16 78 49 101 50 12 0 36 -3 53 -6z
m2931 0 c0 -5 -17 -28 -58 -80 -13 -17 -32 -23 -77 -27 l-60 -6 30 25 c17 13
43 37 59 52 16 15 36 30 45 34 20 8 61 10 61 2z m-3749 -62 c21 -18 39 -40 39
-48 0 -19 -62 -19 -106 2 -32 16 -94 76 -94 93 0 4 27 3 61 -3 44 -8 72 -21
100 -44z m1392 37 c26 -7 47 -16 47 -20 0 -4 -24 -19 -53 -33 l-53 -26 -57 23
-56 23 26 19 c30 23 62 35 83 30 8 -1 36 -9 63 -16z m2831 -45 c-17 -65 -39
-95 -91 -119 -39 -19 -49 -15 -35 12 6 10 15 36 21 58 6 22 17 47 24 55 11 13
88 58 94 55 2 -1 -4 -28 -13 -61z m246 16 c-38 -49 -76 -70 -127 -71 -24 -1
-30 -3 -15 -6 33 -6 24 -34 -18 -55 -19 -9 -57 -18 -85 -18 -42 -1 -46 -3 -26
-11 23 -9 23 -10 6 -29 -34 -37 -134 -52 -171 -26 -18 14 -16 16 26 34 25 11
61 23 79 27 18 4 35 14 38 22 3 8 31 26 62 39 31 14 74 43 97 65 33 32 50 41
83 44 24 1 48 8 54 14 28 28 25 7 -3 -29z m-1452 10 c12 -11 32 -20 46 -20 37
0 78 -18 104 -46 l23 -24 -38 0 c-21 0 -53 9 -71 20 -22 14 -39 17 -50 12 -31
-16 -117 -4 -162 22 l-44 25 30 6 c16 3 43 10 59 14 50 15 80 12 103 -9z
m-2486 -9 c29 -11 85 -29 124 -40 58 -18 77 -28 103 -61 17 -21 31 -41 31 -44
0 -8 -63 4 -106 20 -29 10 -50 28 -69 55 -14 23 -29 38 -32 35 -3 -2 4 -18 16
-34 l21 -30 -23 -6 c-34 -9 -106 30 -113 62 -3 15 -8 35 -11 45 -5 21 -6 21
59 -2z m952 -26 c-22 -54 -53 -92 -92 -115 -31 -19 -62 -26 -62 -15 0 16 36
92 49 103 23 19 115 72 118 68 2 -2 -4 -20 -13 -41z m362 -23 c-9 -27 -29 -60
-44 -73 -28 -26 -81 -53 -89 -46 -8 9 31 93 56 120 23 26 81 59 90 51 1 -1 -4
-25 -13 -52z m1054 -31 c15 -29 -6 -80 -30 -74 -25 7 -50 35 -55 64 -3 13 -8
39 -11 58 l-7 34 46 -32 c26 -17 51 -40 57 -50z m399 58 c30 -11 60 -18 67
-15 7 3 16 1 19 -4 3 -4 28 -13 55 -19 27 -6 62 -21 76 -33 47 -39 66 -59 61
-65 -10 -9 -162 18 -172 31 -25 33 -77 88 -80 85 -2 -2 10 -23 26 -47 15 -23
26 -42 23 -42 -3 0 -24 5 -47 11 -36 9 -47 19 -74 65 -17 30 -26 54 -20 54 7
0 36 -9 66 -21z m-2917 -16 l51 -27 -57 -19 c-65 -22 -88 -19 -139 20 -39 30
-48 48 -18 38 10 -3 29 -1 42 4 40 16 67 12 121 -16z m2254 14 c22 -12 84 -63
84 -69 0 -7 -95 -7 -104 1 -6 5 -22 12 -36 16 -28 9 -80 45 -80 56 0 12 113 9
136 -4z m-1366 -17 l45 -18 -28 -11 c-47 -18 -110 -14 -136 10 -18 17 -20 23
-9 30 21 14 80 9 128 -11z m2643 -21 l49 -12 -29 -23 c-39 -33 -104 -31 -190
4 l-67 27 49 6 c28 4 64 11 80 16 17 5 37 6 45 2 8 -4 37 -13 63 -20z m-2788
1 c10 -11 24 -20 31 -20 31 0 21 -20 -16 -30 -22 -6 -40 -15 -40 -21 0 -18
-57 20 -64 43 -11 43 -7 48 32 48 26 0 45 -7 57 -20z m2976 -12 c-11 -48 -39
-98 -55 -98 -7 0 -19 -7 -26 -15 -7 -8 -26 -15 -42 -15 l-30 0 23 19 c24 20
24 20 2 18 -12 0 -20 -4 -17 -8 4 -7 -62 -42 -104 -54 l-23 -7 24 39 c24 38
113 106 131 100 6 -2 35 9 65 24 31 15 57 28 57 28 1 1 -1 -14 -5 -31z m-2768
-37 c-14 -43 -21 -51 -71 -75 -30 -15 -56 -25 -59 -23 -2 3 5 22 16 43 12 21
21 44 21 50 0 6 24 21 53 32 28 11 53 21 54 21 0 1 -6 -21 -14 -48z m1717 35
c0 -11 -115 -86 -132 -86 -19 0 -24 15 -8 25 6 3 10 19 10 34 0 28 1 28 65 30
36 1 65 -1 65 -3z m675 -25 l60 -28 -55 -16 c-70 -21 -110 -12 -174 36 l-48
37 79 0 c64 -1 89 -6 138 -29z m-3602 -12 c35 -17 87 -63 87 -75 0 -5 -109 5
-140 12 -31 7 -86 48 -100 74 -10 18 -7 19 50 15 33 -3 79 -14 103 -26z m373
16 c10 -8 28 -15 39 -15 50 -1 48 -18 -3 -44 -59 -30 -82 -28 -151 11 -50 29
-44 37 32 52 61 12 61 12 83 -4z m2656 1 c29 -1 66 -10 82 -18 l30 -16 -42
-21 c-39 -20 -44 -20 -97 -6 -31 8 -63 11 -71 8 -9 -3 -20 0 -25 8 -11 19 29
61 52 54 10 -3 41 -7 71 -9z m-1432 -2 c0 -17 -42 -92 -62 -111 -20 -19 -86
-53 -102 -53 -3 0 6 24 18 53 19 42 33 58 77 84 53 32 69 39 69 27z m-490 -9
c0 -16 -45 -93 -52 -89 -4 3 -8 0 -8 -6 0 -6 -15 -18 -32 -26 l-33 -15 44 6
c28 4 61 0 93 -11 46 -15 49 -17 34 -33 -26 -25 -92 -18 -173 19 -76 34 -86
44 -53 55 10 3 30 19 44 36 31 37 136 87 136 64z m1575 -29 l40 -25 -28 -10
c-61 -24 -129 -8 -171 38 l-19 21 69 0 c55 0 77 -5 109 -24z m-2087 -26 c1 -3
38 -4 82 -2 45 3 80 0 80 -5 0 -5 -15 -17 -32 -27 -18 -9 -44 -24 -58 -32 -17
-10 -41 -13 -75 -10 -27 3 -59 6 -70 6 -14 1 -7 8 24 26 23 14 40 28 37 31 -3
3 -18 -2 -33 -12 -43 -28 -102 -36 -143 -18 l-35 14 39 19 c21 11 43 23 50 29
20 16 50 17 91 2 22 -9 41 -18 43 -21z m869 23 c2 -6 -8 -20 -23 -29 -32 -21
-157 -25 -176 -6 -9 9 -9 12 4 12 9 0 26 9 39 20 19 16 36 19 88 17 39 -1 66
-7 68 -14z m-523 1 c23 -9 20 -20 -15 -45 -34 -24 -76 -27 -121 -8 -38 16 -22
25 54 34 32 4 58 11 58 16 0 11 3 11 24 3z m1983 -58 l15 -28 -44 7 c-24 4
-55 14 -70 23 l-28 16 43 22 c47 24 51 22 84 -40z m461 25 l44 -1 -30 -25
c-42 -35 -76 -45 -130 -38 -71 9 -78 17 -32 37 58 25 44 30 -21 7 -52 -17 -57
-18 -98 -2 l-43 17 39 16 c58 25 61 25 147 7 45 -10 100 -18 124 -18z m337
-10 c-20 -27 -45 -55 -58 -63 -27 -17 -152 -24 -162 -9 -4 8 -12 8 -25 1 -10
-5 -43 -11 -72 -11 l-53 -2 52 -10 c36 -7 65 -20 90 -43 l38 -33 -58 -1 c-57
0 -60 2 -110 50 -47 45 -50 50 -28 50 13 0 42 15 65 33 60 49 84 60 114 51 15
-4 34 -6 42 -5 9 2 1 -12 -17 -31 -46 -48 -41 -60 5 -15 28 28 44 36 58 31 18
-6 18 -6 0 8 -19 15 -10 18 109 42 43 8 44 4 10 -43z m-727 8 c20 -7 34 -21
43 -42 7 -18 22 -43 33 -57 15 -17 16 -20 4 -11 -13 10 -18 10 -18 2 0 -8 -14
-4 -37 9 -62 35 -73 46 -79 79 -7 35 2 38 54 20z m1182 -1 c0 -23 -25 -93 -40
-115 -19 -26 -76 -60 -111 -66 l-25 -5 29 60 c38 81 27 85 -15 6 -22 -42 -39
-63 -50 -62 -10 1 -16 -3 -15 -8 2 -12 -64 -38 -108 -42 -16 -2 -43 -9 -59
-15 -35 -14 -116 -26 -116 -18 0 3 11 17 25 31 29 29 32 46 9 46 -8 0 -13 -3
-11 -7 3 -5 -8 -23 -23 -41 -26 -31 -33 -34 -104 -39 -42 -3 -76 -2 -76 3 0 5
16 19 35 32 19 12 35 26 35 32 0 15 72 30 143 29 53 -1 71 3 93 20 32 25 31
25 -21 6 -57 -20 -68 -19 -110 15 -46 36 -67 39 -35 5 28 -30 24 -36 -29 -37
-31 0 -50 7 -81 32 -22 17 -38 36 -34 41 3 5 9 7 14 4 18 -11 137 -8 171 5 32
12 42 11 90 -8 30 -11 69 -24 87 -29 l33 -8 -30 -35 c-31 -36 -37 -50 -22 -50
5 0 26 23 46 51 29 41 50 57 108 84 39 18 75 31 78 29 4 -2 19 8 35 23 16 15
35 28 42 29 8 2 16 5 20 8 10 10 22 6 22 -6z m-1398 -10 c12 -7 30 -21 40 -30
10 -11 33 -18 56 -18 20 0 51 -8 67 -18 17 -10 42 -22 58 -25 15 -4 27 -11 27
-16 0 -9 -108 -31 -151 -31 -27 0 -104 41 -104 55 0 5 15 13 34 18 25 6 31 11
21 17 -8 5 -25 3 -42 -6 -35 -18 -81 -11 -133 20 l-37 23 40 1 c22 1 50 6 63
11 32 13 36 13 61 -1z m-2386 -29 c18 -11 44 -36 60 -57 15 -20 33 -41 38 -45
6 -5 -5 -5 -24 -1 -19 4 -44 7 -54 6 -27 -1 -63 30 -97 83 l-29 46 37 -7 c21
-3 52 -15 69 -25z m885 19 c42 -12 50 -24 22 -32 -88 -25 -108 -27 -150 -16
-23 7 -43 16 -43 20 0 11 71 38 104 39 16 1 46 -4 67 -11z m1917 -70 c8 -18
20 -37 28 -41 24 -14 15 -28 -13 -21 -79 19 -163 87 -163 132 0 6 29 0 68 -13
57 -21 69 -29 80 -57z m-2372 54 l51 -18 -33 -22 c-31 -20 -39 -21 -106 -12
-68 10 -99 19 -67 21 8 0 30 11 49 24 42 29 42 29 106 7z m600 -24 c-26 -43
-108 -98 -147 -98 -17 0 -16 3 6 38 13 20 30 45 37 55 13 18 79 46 111 47 16
0 16 -4 -7 -42z m-1242 3 l36 -29 -49 -7 c-28 -4 -60 -4 -73 0 -18 5 -20 4 -8
-4 8 -6 10 -11 4 -11 -11 0 -104 67 -104 75 0 3 35 5 79 5 71 0 81 -3 115 -29z
m3741 -5 l39 -14 -38 -16 c-44 -18 -111 -23 -86 -6 11 8 8 9 -12 4 -31 -7
-104 14 -91 26 23 22 132 25 188 6z m-3392 -11 c35 -14 95 -80 84 -91 -3 -3
-22 -2 -42 2 -38 7 -97 51 -116 85 -8 16 -6 19 14 19 14 0 41 -7 60 -15z
m2814 -57 c51 -52 47 -56 -35 -34 -51 14 -87 43 -103 86 -6 14 -1 15 42 6 38
-8 59 -20 96 -58z m-2375 30 c24 -13 45 -26 46 -31 2 -4 8 -5 13 -1 5 3 9 1 9
-4 0 -8 -68 -22 -110 -22 -10 0 -33 14 -50 30 -32 29 -32 31 -14 45 24 17 52
13 106 -17z m322 20 c-40 -70 -116 -127 -167 -128 -17 0 -16 3 5 41 26 48 55
69 112 85 56 16 58 16 50 2z m-578 -51 c26 -21 51 -37 56 -37 5 0 6 -5 3 -11
-10 -14 -82 -2 -120 21 -26 16 -75 64 -75 73 0 2 20 1 45 -3 29 -4 61 -20 91
-43z m-368 14 c9 -6 13 -11 7 -11 -5 -1 4 -7 20 -14 l30 -13 -42 -6 c-24 -4
-43 -12 -43 -17 0 -23 -108 3 -125 30 -4 6 -10 8 -13 6 -4 -2 -18 2 -32 9 -27
14 -22 19 30 29 37 7 148 -2 168 -13z m514 -16 l30 -25 -52 0 c-54 0 -109 20
-132 48 -12 14 -6 14 56 8 52 -5 76 -13 98 -31z m256 -31 c-24 -41 -72 -74
-106 -74 l-24 0 26 31 c14 17 26 37 26 45 0 13 14 19 70 27 14 3 26 5 27 6 1
0 -7 -15 -19 -35z m2025 17 c6 -6 20 -11 32 -12 13 0 6 -7 -23 -21 -56 -25
-133 -25 -192 0 l-45 19 60 12 c33 7 65 14 70 16 19 6 87 -3 98 -14z m-2630
-16 c26 -3 47 -9 47 -13 0 -7 -78 -45 -118 -57 -24 -7 -122 21 -122 35 0 11
111 49 130 45 8 -2 36 -6 63 -10z m508 -12 c-18 -34 -66 -71 -106 -82 -65 -18
-68 -14 -31 33 27 32 47 46 79 53 64 16 69 16 58 -4z m-133 -22 c-47 -58 -131
-92 -182 -72 -17 6 -15 10 15 35 40 34 70 47 129 56 25 4 49 8 53 9 5 0 -2
-12 -15 -28z m2472 11 l35 -8 -45 -26 c-62 -36 -81 -40 -129 -29 -27 6 -39 5
-35 -1 7 -11 -18 -6 -68 14 -34 13 -36 28 -5 28 12 0 38 9 57 19 36 20 105 21
190 3z m-2665 -6 c43 -11 47 -14 26 -21 -12 -4 -31 -15 -41 -25 -17 -17 -112
-35 -140 -26 -8 2 -28 8 -45 11 -29 7 -28 8 40 41 77 38 88 39 160 20z m2843
-5 c9 -5 1 -15 -28 -35 -22 -15 -39 -30 -36 -34 2 -4 -31 -9 -74 -10 -76 -3
-113 10 -73 25 10 4 32 17 48 29 21 15 48 24 85 27 30 2 57 4 60 5 3 1 11 -2
18 -7z"/>
<path d="M4116 3949 c-26 -30 -33 -49 -18 -49 11 1 63 80 53 80 -5 0 -21 -14
-35 -31z"/>
<path d="M4317 3930 c-9 -11 -13 -20 -8 -20 4 0 16 9 26 20 10 11 14 20 9 20
-5 0 -17 -9 -27 -20z"/>
<path d="M2060 3884 c15 -39 31 -66 36 -61 7 7 -27 87 -37 87 -5 0 -4 -12 1
-26z"/>
<path d="M4864 3831 c-4 -17 -11 -31 -16 -31 -5 0 -6 -10 -3 -22 6 -19 5 -21
-6 -10 -14 13 -79 17 -79 4 0 -5 -14 -6 -31 -4 -22 3 -30 1 -25 -7 4 -6 16
-11 26 -11 12 0 21 -10 25 -30 7 -34 52 -74 69 -62 15 11 36 9 69 -8 45 -22
34 -40 -25 -40 -76 0 -100 8 -93 31 5 14 2 17 -9 13 -24 -9 -56 15 -74 54 -15
34 -16 35 -20 13 -3 -17 7 -34 34 -62 21 -21 40 -36 43 -34 2 3 13 -2 23 -11
20 -19 103 -30 143 -20 20 5 24 11 20 29 -13 52 45 116 80 87 17 -14 21 -70 5
-70 -5 0 -9 -10 -7 -22 2 -20 -3 -23 -30 -24 -36 0 -45 -14 -16 -25 11 -4 29
2 47 14 21 15 31 17 34 9 2 -7 13 -12 25 -11 22 0 22 0 -1 11 -18 9 -22 17
-17 39 4 16 2 36 -3 46 -6 10 -6 26 -1 40 5 14 5 23 -1 23 -6 0 -10 -7 -10
-17 0 -15 -2 -15 -19 1 -14 13 -26 16 -43 10 -13 -4 -27 -7 -31 -6 -5 1 -6 -2
-2 -8 3 -5 1 -10 -5 -10 -6 0 -15 -11 -20 -25 -19 -51 -52 -18 -53 55 -1 28 3
54 8 58 6 4 17 16 25 27 14 19 14 19 -4 5 -18 -14 -19 -13 -13 2 3 10 2 20 -4
23 -5 4 -12 -7 -15 -24z m-36 -77 c25 -17 29 -56 7 -74 -13 -10 -19 -10 -35 5
-21 19 -42 70 -33 79 11 11 38 6 61 -10z"/>
<path d="M4796 3806 c21 -15 30 -14 19 3 -3 6 -14 11 -23 11 -13 0 -13 -2 4
-14z"/>
<path d="M4938 3789 c-10 -5 -18 -7 -18 -3 0 3 -7 1 -15 -6 -16 -13 -21 -35
-6 -25 6 3 14 -3 20 -12 9 -16 10 -16 11 4 0 13 8 24 20 28 11 3 20 11 20 16
0 12 -10 11 -32 -2z"/>
<path d="M4975 3530 c-3 -5 -18 -10 -32 -10 -25 0 -24 -1 11 -25 43 -29 46
-30 71 -12 16 13 15 14 -12 10 -38 -6 -54 14 -28 34 11 7 14 13 8 13 -7 0 -15
-4 -18 -10z"/>
<path d="M1040 3719 c0 -9 6 -22 14 -28 8 -7 17 -30 21 -52 4 -21 11 -39 17
-39 6 0 7 7 4 16 -3 9 -6 24 -6 34 0 10 -6 25 -13 32 -7 7 -18 22 -25 33 -9
16 -11 17 -12 4z"/>
<path d="M1105 3710 c10 -11 20 -20 22 -20 2 0 -1 9 -7 20 -6 11 -16 20 -22
20 -6 0 -3 -9 7 -20z"/>
<path d="M840 3605 c0 -8 7 -15 16 -15 12 0 14 -3 6 -12 -13 -16 14 -52 46
-62 12 -4 22 -12 22 -18 0 -6 3 -8 6 -5 4 3 15 2 26 -4 11 -6 22 -8 25 -6 3 3
-17 16 -43 28 -54 24 -75 46 -69 69 3 8 1 20 -3 25 -12 16 -32 16 -32 0z"/>
<path d="M1080 3581 c0 -13 29 -35 37 -27 3 3 1 6 -5 6 -7 0 -12 7 -12 15 0 8
-4 15 -10 15 -5 0 -10 -4 -10 -9z"/>
<path d="M1070 3541 c0 -6 -9 -11 -21 -11 -12 0 -17 -4 -14 -11 4 -6 -1 -17
-11 -25 -12 -9 -6 -8 14 3 42 23 57 39 42 48 -5 3 -10 1 -10 -4z"/>
<path d="M1101 3528 c0 -9 -4 -25 -7 -35 -5 -17 -5 -17 6 0 6 10 9 25 7 35 -4
15 -5 15 -6 0z"/>
<path d="M1067 3460 c-3 -13 0 -20 9 -20 15 0 19 26 5 34 -5 3 -11 -3 -14 -14z"/>
<path d="M704 3610 c-24 -9 -41 -30 -25 -30 5 0 13 5 16 10 3 6 17 10 31 10
13 0 24 5 24 10 0 12 -17 12 -46 0z"/>
<path d="M5521 3158 c0 -9 -4 -25 -7 -35 -5 -14 -4 -15 5 -7 7 7 11 22 8 35
-2 13 -5 16 -6 7z"/>
<path d="M4520 2649 c0 -6 13 -8 30 -5 16 2 32 1 35 -4 3 -4 15 -6 27 -2 21 5
21 6 2 13 -29 12 -94 10 -94 -2z"/>
<path d="M1488 2568 c9 -9 15 -9 24 0 9 9 7 12 -12 12 -19 0 -21 -3 -12 -12z"/>
<path d="M1580 2563 c0 -5 11 -9 25 -9 14 -1 25 2 25 7 0 5 -11 9 -25 9 -14 0
-25 -3 -25 -7z"/>
<path d="M1790 2540 c0 -5 7 -10 15 -10 8 0 15 5 15 10 0 6 -7 10 -15 10 -8 0
-15 -4 -15 -10z"/>
<path d="M2277 3013 c-13 -12 -7 -72 9 -87 8 -9 32 -16 54 -16 l38 0 -2 55 -1
55 -46 0 c-25 0 -49 -3 -52 -7z m63 -49 c0 -33 -33 -30 -38 4 -3 17 2 22 17
22 16 0 21 -6 21 -26z"/>
<path d="M2396 2878 c-3 -13 0 -27 7 -33 6 -5 9 -6 5 -1 -4 5 -3 17 2 27 6 10
6 20 1 23 -5 3 -11 -4 -15 -16z"/>
<path d="M1860 3072 c0 -4 9 -13 20 -19 16 -11 18 -10 14 1 -6 15 -34 30 -34
18z"/>
<path d="M1931 3043 c-1 -7 -7 -13 -13 -13 -7 0 -22 -8 -33 -17 -19 -15 -19
-15 5 -8 14 4 36 7 49 7 13 0 20 3 14 6 -5 4 -13 14 -16 22 -3 9 -6 10 -6 3z"/>
<path d="M1910 2963 c0 -16 -7 -41 -15 -57 -8 -15 -15 -30 -15 -31 0 -2 20 -3
45 -3 l45 0 -14 26 c-7 15 -17 42 -21 60 -8 39 -25 42 -25 5z"/>
<path d="M1990 2870 c0 -14 14 -18 35 -9 11 4 16 8 10 9 -5 1 -18 3 -27 5 -10
2 -18 -1 -18 -5z"/>
<path d="M1834 2844 c-6 -3 -9 -16 -6 -29 7 -38 17 -37 17 1 0 19 0 34 0 33 0
0 -5 -3 -11 -5z"/>
<path d="M1770 2830 c0 -5 6 -10 14 -10 8 0 18 5 21 10 3 6 -3 10 -14 10 -12
0 -21 -4 -21 -10z"/>
<path d="M2000 2810 c0 -13 33 -21 42 -12 6 6 -1 11 -16 14 -14 3 -26 2 -26
-2z"/>
<path d="M3145 3050 c-4 -6 -11 -7 -17 -4 -7 4 -8 2 -4 -4 5 -9 13 -9 27 -2
10 6 19 13 19 15 0 9 -19 5 -25 -5z"/>
<path d="M3165 2965 c0 -61 6 -65 55 -40 40 21 43 71 4 85 -52 20 -59 15 -59
-45z m55 11 c0 -15 -18 -31 -26 -23 -7 7 7 37 17 37 5 0 9 -6 9 -14z"/>
<path d="M3130 2863 c0 -12 5 -25 11 -28 16 -11 17 -2 2 25 -12 24 -13 24 -13
3z"/>
<path d="M3763 2745 c7 -14 16 -25 20 -25 9 0 -9 36 -22 44 -5 4 -4 -5 2 -19z"/>
<path d="M4175 3031 c-3 -6 -18 -8 -33 -5 l-27 6 25 -14 c21 -12 27 -12 39 0
7 7 11 15 8 18 -3 3 -8 1 -12 -5z"/>
<path d="M4112 2948 c-5 -24 -13 -50 -16 -59 -6 -14 0 -18 34 -21 45 -4 58 3
36 21 -8 6 -17 32 -21 56 -8 57 -21 57 -33 3z"/>
<path d="M4210 2860 c0 -12 8 -12 35 0 18 8 17 9 -7 9 -16 1 -28 -3 -28 -9z"/>
<path d="M4033 2803 c-7 -15 -11 -28 -9 -31 6 -6 28 38 24 48 -2 5 -9 -3 -15
-17z"/>
<path d="M4226 2799 c6 -11 31 -12 37 -1 3 4 -6 8 -19 8 -13 1 -21 -2 -18 -7z"/>
<path d="M630 2621 c0 -5 20 -23 44 -40 25 -16 43 -24 40 -18 -7 16 -84 69
-84 58z"/>
<path d="M850 2516 c0 -3 24 -18 53 -34 50 -28 124 -42 111 -21 -3 6 -18 8
-33 4 -20 -4 -38 2 -71 24 -42 29 -60 37 -60 27z"/>
<path d="M1085 2480 c-4 -12 -5 -24 -2 -27 3 -2 8 5 12 17 4 12 5 24 2 27 -3
2 -8 -5 -12 -17z"/>
<path d="M840 2480 c0 -6 13 -18 30 -29 16 -10 27 -21 23 -25 -4 -4 1 -4 10 0
21 8 22 6 -26 38 -20 14 -37 21 -37 16z"/>
<path d="M2801 2445 c-19 -6 -37 -18 -40 -26 -3 -11 -1 -12 11 -2 8 7 32 16
54 21 23 5 33 10 24 14 -8 3 -30 0 -49 -7z"/>
<path d="M1745 2189 c-18 -11 -24 -19 -14 -19 9 0 24 9 34 20 22 24 19 24 -20
-1z"/>
<path d="M1733 2139 c-5 -5 -51 -12 -103 -16 -94 -7 -94 -8 -40 -14 55 -7 166
7 175 21 7 12 -21 20 -32 9z"/>
<path d="M250 3855 c0 -8 5 -15 10 -15 6 0 10 7 10 15 0 8 -4 15 -10 15 -5 0
-10 -7 -10 -15z"/>
<path d="M511 3826 c-7 -8 -8 -17 -3 -19 4 -3 13 3 20 14 14 22 0 26 -17 5z"/>
<path d="M5808 3020 c2 -16 6 -30 8 -30 2 0 4 14 4 30 0 17 -4 30 -8 30 -5 0
-7 -13 -4 -30z"/>
<path d="M5810 2930 c0 -16 2 -30 4 -30 2 0 6 14 8 30 3 17 1 30 -4 30 -4 0
-8 -13 -8 -30z"/>
<path d="M5787 2859 c-10 -18 -16 -33 -14 -35 8 -8 39 35 35 50 -2 11 -8 6
-21 -15z"/>
<path d="M356 2455 c-3 -9 -5 -33 -5 -53 1 -34 2 -33 10 13 8 51 6 68 -5 40z"/>
<path d="M274 2402 c-6 -4 -14 -17 -18 -29 -4 -13 -12 -23 -17 -23 -5 0 -9 -6
-9 -12 1 -7 11 0 24 16 24 29 46 28 46 -1 0 -9 3 -14 6 -10 7 7 -5 67 -14 67
-4 0 -12 -4 -18 -8z"/>
<path d="M5544 2141 c-4 -17 -10 -31 -15 -31 -5 0 -9 -5 -9 -10 0 -7 6 -7 19
-1 20 11 34 58 20 67 -5 3 -12 -8 -15 -25z"/>
<path d="M181 2043 c0 -29 3 -53 7 -53 4 0 6 17 4 38 -6 64 -10 69 -11 15z"/>
<path d="M181 1949 c-1 -27 24 -57 37 -45 4 4 0 13 -9 20 -9 6 -19 20 -22 31
-4 16 -5 14 -6 -6z"/>
<path d="M5670 1948 c0 -5 4 -8 9 -8 5 0 16 -3 25 -6 10 -4 16 -1 16 9 0 10
-9 14 -25 13 -14 0 -25 -4 -25 -8z"/>
<path d="M255 1940 c-13 -5 -14 -9 -5 -9 8 0 24 4 35 9 13 5 14 9 5 9 -8 0
-24 -4 -35 -9z"/>
<path d="M2687 1935 c-15 -6 -24 -15 -20 -19 5 -5 -3 -5 -17 -2 -17 5 -21 4
-11 -2 8 -6 10 -15 5 -23 -4 -8 6 -2 24 13 17 14 37 28 44 31 7 2 11 6 8 9 -3
3 -17 0 -33 -7z"/>
<path d="M5260 1941 c0 -10 26 -9 36 2 4 4 -2 7 -14 7 -12 0 -22 -4 -22 -9z"/>
<path d="M5330 1940 c0 -5 12 -10 28 -10 21 0 24 2 12 10 -20 13 -40 13 -40 0z"/>
<path d="M5513 1938 c-6 -11 79 -10 96 1 9 6 -4 9 -38 8 -29 -1 -55 -5 -58 -9z"/>
<path d="M364 1922 c4 -7 2 -19 -4 -27 -7 -8 -10 -20 -7 -27 3 -8 10 -1 16 16
9 22 9 32 0 40 -9 8 -10 8 -5 -2z"/>
<path d="M5428 1923 c12 -2 30 -2 40 0 9 3 -1 5 -23 4 -22 0 -30 -2 -17 -4z"/>
<path d="M5690 1869 c0 -4 5 -9 11 -11 9 -3 9 -10 0 -26 -6 -12 -8 -22 -3 -22
9 0 22 32 22 56 0 6 -7 11 -15 11 -8 0 -15 -4 -15 -8z"/>
<path d="M341 1808 c-11 -30 14 -37 38 -12 14 15 14 16 0 6 -18 -14 -30 -6
-22 14 3 8 2 14 -1 14 -4 0 -10 -10 -15 -22z"/>
<path d="M656 1804 c-8 -22 -8 -44 2 -44 4 0 7 14 8 30 1 34 -1 37 -10 14z"/>
<path d="M5650 1803 c-14 -7 -18 -13 -10 -13 17 0 47 17 40 23 -3 2 -16 -2
-30 -10z"/>
<path d="M5533 1773 c9 -2 25 -2 35 0 9 3 1 5 -18 5 -19 0 -27 -2 -17 -5z"/>
<path d="M2080 1660 c0 -5 9 -10 19 -10 11 0 23 5 26 10 4 6 -5 10 -19 10 -14
0 -26 -4 -26 -10z"/>
<path d="M480 1644 c0 -14 3 -14 15 -4 8 7 15 14 15 16 0 2 -7 4 -15 4 -8 0
-15 -7 -15 -16z"/>
<path d="M5495 1640 c3 -6 -3 -24 -15 -40 l-21 -30 21 0 c17 0 20 4 15 20 -4
11 -2 20 4 20 6 0 11 9 11 20 0 11 -5 20 -11 20 -5 0 -7 -5 -4 -10z"/>
<path d="M2380 1620 c-17 -6 -9 -7 25 -3 28 3 52 7 54 9 8 7 -54 2 -79 -6z"/>
<path d="M5410 1602 c0 -17 21 -25 31 -13 5 6 6 9 3 6 -4 -3 -13 0 -21 6 -9 8
-13 8 -13 1z"/>
<path d="M500 1535 c0 -8 5 -15 10 -15 6 0 10 7 10 15 0 8 -4 15 -10 15 -5 0
-10 -7 -10 -15z"/>
<path d="M1575 1451 c-27 -6 -28 -7 -8 -13 12 -3 25 -2 30 3 4 4 33 10 63 12
l55 3 -55 1 c-30 0 -68 -2 -85 -6z"/>
<path d="M678 1383 c-3 -13 -2 -26 4 -29 14 -9 16 -2 8 26 -6 25 -6 25 -12 3z"/>
<path d="M888 1363 c6 -2 10 -8 7 -13 -6 -9 23 -35 31 -27 9 9 -20 47 -36 46
-10 0 -11 -2 -2 -6z"/>
<path d="M1090 1311 c-14 -4 -20 -10 -14 -14 6 -3 20 0 30 8 21 16 20 16 -16
6z"/>
<path d="M5276 1292 c-2 -4 -1 -14 3 -21 6 -10 10 -9 14 3 6 16 -8 32 -17 18z"/>
<path d="M1154 1215 c1 -8 8 -21 16 -28 10 -10 12 -9 6 6 -3 10 -6 23 -6 28 0
5 -4 9 -9 9 -5 0 -8 -7 -7 -15z"/>
<path d="M1770 1221 c0 -6 -15 -12 -32 -14 -29 -3 -28 -4 9 -5 34 -2 41 1 37
13 -7 17 -14 20 -14 6z"/>
<path d="M1830 1210 c-11 -7 -4 -10 25 -9 31 0 36 2 20 9 -26 11 -28 11 -45 0z"/>
<path d="M1575 1200 l-20 -9 20 0 c11 0 27 4 35 9 13 9 13 10 0 9 -8 0 -24 -4
-35 -9z"/>
<path d="M800 1184 c0 -17 22 -14 28 4 2 7 -3 12 -12 12 -9 0 -16 -7 -16 -16z"/>
<path d="M1330 1135 c0 -13 4 -14 23 -4 33 17 33 19 4 19 -18 0 -27 -5 -27
-15z"/>
<path d="M800 1105 c0 -8 7 -15 15 -15 8 0 15 4 15 9 0 5 -7 11 -15 15 -9 3
-15 0 -15 -9z"/>
<path d="M3285 1086 c19 -48 25 -56 25 -30 0 10 -10 30 -21 44 l-20 25 16 -39z"/>
<path d="M1687 1085 c-2 -14 -1 -28 3 -30 4 -3 10 7 13 20 2 14 1 28 -3 30 -4
3 -10 -7 -13 -20z"/>
<path d="M5046 1044 c-11 -7 -17 -17 -13 -20 3 -4 14 1 23 10 21 22 15 28 -10
10z"/>
<path d="M4210 1040 c0 -5 7 -10 15 -10 8 0 15 5 15 10 0 6 -7 10 -15 10 -8 0
-15 -4 -15 -10z"/>
<path d="M4288 1033 c12 -2 30 -2 40 0 9 3 -1 5 -23 4 -22 0 -30 -2 -17 -4z"/>
<path d="M1965 1000 c-3 -5 3 -10 14 -10 12 0 21 5 21 10 0 6 -6 10 -14 10 -8
0 -18 -4 -21 -10z"/>
<path d="M1570 969 c-19 -5 -43 -6 -54 -2 -12 3 -16 1 -12 -6 8 -13 85 -15
105 -2 21 13 0 19 -39 10z"/>
<path d="M1115 940 c-4 -6 -19 -16 -33 -22 -23 -10 -24 -12 -8 -16 19 -4 65
32 54 43 -3 4 -9 1 -13 -5z"/>
<path d="M1458 905 c-3 -14 -1 -25 3 -25 5 0 9 11 9 25 0 14 -2 25 -4 25 -2 0
-6 -11 -8 -25z"/>
<path d="M1260 896 c0 -8 5 -18 10 -21 6 -3 10 3 10 14 0 12 -4 21 -10 21 -5
0 -10 -6 -10 -14z"/>
<path d="M1033 892 c-7 -4 -9 -13 -5 -19 5 -8 11 -7 19 3 14 15 3 27 -14 16z"/>
<path d="M1190 888 c0 -9 5 -20 11 -23 17 -11 18 -2 3 19 -12 17 -14 17 -14 4z"/>
<path d="M2595 840 c-4 -6 5 -10 19 -10 14 0 26 5 26 10 0 6 -9 10 -19 10 -11
0 -23 -4 -26 -10z"/>
<path d="M760 660 c0 -11 5 -20 10 -20 6 0 10 9 10 20 0 11 -4 20 -10 20 -5 0
-10 -9 -10 -20z"/>
<path d="M625 642 c-10 -6 -19 -52 -10 -52 2 0 8 14 14 30 11 33 11 33 -4 22z"/>
</g>
</svg>
